<svg width="78" height="82" viewBox="0 0 78 82" fill="none" xmlns="http://www.w3.org/2000/svg">
<rect width="38.2198" height="35.878" rx="3.57748" transform="matrix(0.835813 0.549014 -0.549051 0.835789 36.9092 12.1426)" fill="#686767"/>
<rect width="38.2198" height="0.779957" transform="matrix(0.835813 0.549014 -0.549051 0.835789 31.5562 20.2905)" fill="#595959"/>
<rect width="38.2198" height="0.779956" transform="matrix(0.835813 0.549015 -0.549051 0.835789 29.4151 23.5499)" fill="#595959"/>
<ellipse cx="0.780001" cy="0.779961" rx="0.780001" ry="0.779961" transform="matrix(0.835813 0.549015 -0.549051 0.835789 34.4612 17.9995)" fill="#7D7D7D"/>
<ellipse cx="0.779987" cy="0.779953" rx="0.779987" ry="0.779953" transform="matrix(0.835811 0.549017 -0.549049 0.835791 62.4942 36.4132)" fill="#7D7D7D"/>
<ellipse cx="0.779993" cy="0.779954" rx="0.779993" ry="0.779954" transform="matrix(0.835813 0.549015 -0.549051 0.835789 29.5365 25.496)" fill="#7D7D7D"/>
<ellipse cx="0.780001" cy="0.779961" rx="0.780001" ry="0.779961" transform="matrix(0.835813 0.549015 -0.549051 0.835789 57.5695 43.9099)" fill="#7D7D7D"/>
<rect width="7.40996" height="19.8889" rx="2.38499" transform="matrix(0.999318 -0.0369264 0.0368827 0.99932 47.8051 40.744)" fill="#D6D6D6"/>
<ellipse cx="2.53499" cy="2.53486" rx="2.53499" ry="2.53486" transform="matrix(0.999318 -0.0369266 0.0368825 0.99932 51.1085 56.2318)" fill="url(#paint0_radial_330_4981)"/>
<rect width="7.40996" height="19.8889" rx="2.38499" transform="matrix(-0.294269 -0.955723 -0.95571 0.29431 35.8469 33.4197)" fill="#D6D6D6"/>
<ellipse cx="2.53499" cy="2.53486" rx="2.53499" ry="2.53486" transform="matrix(-0.294269 -0.955723 -0.95571 0.294311 20.364 35.4557)" fill="url(#paint1_radial_330_4981)"/>
<path d="M40.9798 57.0445L24.3555 46.1246L14.9591 60.4283C14.2359 61.5292 14.5421 63.0078 15.643 63.731L18.0125 65.2875C19.1135 66.0106 20.5922 65.7044 21.3154 64.6035L25.7603 57.8373C26.4255 56.8247 27.7857 56.543 28.7983 57.2082C29.811 57.8734 30.0926 59.2335 29.4274 60.2461L24.9825 67.0123C24.2593 68.1132 24.5655 69.5919 25.6665 70.315L28.2805 72.0321C29.3814 72.7552 30.8601 72.449 31.5833 71.3481L40.9798 57.0445Z" fill="#D6D6D6"/>
<rect width="25.3499" height="24.5686" transform="matrix(0.835813 0.549014 -0.549051 0.835789 35.1349 24.7435)" fill="#E1E1E1"/>
<rect width="23.7899" height="7.01961" transform="matrix(0.835813 0.549014 -0.549051 0.835789 24.4386 42.4466)" fill="#E1E1E1"/>
<rect width="1.94999" height="24.5686" transform="matrix(0.835813 0.549015 -0.549051 0.835789 38.3945 26.8847)" fill="url(#paint2_linear_330_4981)"/>
<rect width="1.94999" height="24.5686" transform="matrix(0.835813 0.549014 -0.549052 0.835788 50.7813 35.0211)" fill="url(#paint3_linear_330_4981)"/>
<rect width="25.3499" height="0.779956" transform="matrix(0.835813 0.549014 -0.549051 0.835789 22.0738 44.6259)" fill="#9A9A9A"/>
<rect width="2.73" height="6.23966" rx="1.365" transform="matrix(0.835814 0.549014 -0.549052 0.835788 61.6757 30.5126)" fill="#D6D6D6"/>
<rect width="2.72999" height="6.23965" rx="1.36499" transform="matrix(0.835813 0.549015 -0.549051 0.835789 38.2062 15.0962)" fill="#D6D6D6"/>
<path d="M60.8908 33.7296C56.6517 40.1825 47.9838 41.9772 41.5304 37.7382C35.077 33.4992 33.2819 24.8317 37.521 18.3789C41.76 11.926 50.428 10.1313 56.8814 14.3703C63.3348 18.6093 65.1299 27.2768 60.8908 33.7296Z" fill="#D6D6D6" stroke="#E1E1E1" stroke-width="0.119249"/>
<path fill-rule="evenodd" clip-rule="evenodd" d="M60.7087 34.0766C56.3125 40.0316 47.9739 41.5755 41.7118 37.4621C35.4496 33.3487 33.5551 25.0831 37.2748 18.6837C37.1213 18.8917 36.9725 19.1051 36.8288 19.3239C32.5716 25.8043 34.3744 34.5087 40.8553 38.7658C47.3362 43.0229 56.0412 41.2205 60.2983 34.7401C60.442 34.5214 60.5788 34.3001 60.7087 34.0766Z" fill="#DDDDDD"/>
<path fill-rule="evenodd" clip-rule="evenodd" d="M59.8522 35.3804C55.456 41.3354 47.1174 42.8793 40.8553 38.7659C34.5931 34.6525 32.6986 26.3869 36.4183 19.9875C36.2647 20.1956 36.116 20.409 35.9723 20.6277C31.7151 27.1081 33.5179 35.8126 39.9988 40.0697C46.4797 44.3267 55.1846 42.5244 59.4418 36.044C59.5855 35.8252 59.7223 35.604 59.8522 35.3804Z" fill="#D6D6D6"/>
<path d="M62.2857 29.0468C60.1941 23.7069 49.4884 16.2082 42.6622 14.5239C37.5506 18.3983 34.8536 24.2155 37.199 30.2986C38.5013 33.6763 40.3066 35.3172 43.4115 37.1788C45.7086 38.5561 47.2397 39.2593 49.9164 39.3521C56.2002 39.5699 61.4995 32.7297 62.2857 29.0468Z" fill="black"/>
<rect x="45.1912" y="41.321" width="0.779997" height="0.389981" rx="0.19499" transform="rotate(13.3007 45.1912 41.321)" fill="#C4C4C4"/>
<rect width="0.390011" height="0.389964" rx="0.194982" transform="matrix(0.973176 0.230061 -0.230062 0.973176 46.9232 41.5256)" fill="#C4C4C4"/>
<mask id="mask0_330_4981" style="mask-type:alpha" maskUnits="userSpaceOnUse" x="36" y="14" width="27" height="26">
<path d="M62.2857 29.0473C60.1942 23.7074 49.4885 16.2086 42.6623 14.5244C37.5507 18.3988 34.8536 24.216 37.199 30.2991C38.5014 33.6768 40.3067 35.3177 43.4115 37.1793C45.7086 38.5566 47.2397 39.2598 49.9165 39.3526C56.2002 39.5704 61.4996 32.7302 62.2857 29.0473Z" fill="black"/>
</mask>
<g mask="url(#mask0_330_4981)">
<rect width="3.89984" height="21.6091" transform="matrix(0.369765 0.929126 -0.929149 0.369707 53.1284 15.8199)" fill="#484848"/>
<rect width="2.20053" height="22.7804" transform="matrix(0.369764 0.929126 -0.929149 0.369707 57.162 21.1147)" fill="#484848"/>
</g>
<ellipse cx="2.53499" cy="2.53486" rx="2.53499" ry="2.53486" transform="matrix(0.835813 0.549015 -0.549051 0.835789 42.9742 16.3619)" fill="#828282" fill-opacity="0.5"/>
<ellipse cx="1.365" cy="1.36492" rx="1.365" ry="1.36492" transform="matrix(0.835814 0.549013 -0.549053 0.835788 46.2338 18.5031)" fill="#828282" fill-opacity="0.5"/>
<ellipse cx="0.974992" cy="0.974947" rx="0.974992" ry="0.974947" transform="matrix(0.835812 0.549016 -0.54905 0.83579 40.833 19.6213)" fill="#828282" fill-opacity="0.5"/>
<ellipse cx="0.974995" cy="0.974947" rx="0.974995" ry="0.974947" transform="matrix(0.835813 0.549015 -0.549051 0.835789 48.1418 12.7574)" fill="#BC0D0D"/>
<ellipse cx="0.975002" cy="0.974948" rx="0.975002" ry="0.974948" transform="matrix(0.835814 0.549013 -0.549053 0.835788 52.5839 13.809)" fill="#BC0D0D"/>
<rect width="10.5299" height="5.4597" rx="1.19249" transform="matrix(0.835813 0.549015 -0.549051 0.835789 34.1506 39.0276)" fill="#273AE7"/>
<path d="M39.2638 43.3195L36.6506 43.6443L38.0883 44.2971L34.5149 44.866" stroke="#D2CB15" stroke-width="0.238499"/>
<defs>
<radialGradient id="paint0_radial_330_4981" cx="0" cy="0" r="1" gradientUnits="userSpaceOnUse" gradientTransform="translate(3.11999 3.11983) rotate(-156.802) scale(1.48506 1.485)">
<stop stop-color="white"/>
<stop offset="1" stop-color="#DDDDDD"/>
</radialGradient>
<radialGradient id="paint1_radial_330_4981" cx="0" cy="0" r="1" gradientUnits="userSpaceOnUse" gradientTransform="translate(3.11999 3.11983) rotate(-156.802) scale(1.48506 1.485)">
<stop stop-color="white"/>
<stop offset="1" stop-color="#DDDDDD"/>
</radialGradient>
<linearGradient id="paint2_linear_330_4981" x1="0.974995" y1="0" x2="0.974995" y2="24.5686" gradientUnits="userSpaceOnUse">
<stop stop-color="#3BB094"/>
<stop offset="1" stop-color="#232030"/>
</linearGradient>
<linearGradient id="paint3_linear_330_4981" x1="0.974997" y1="0" x2="0.974997" y2="24.5686" gradientUnits="userSpaceOnUse">
<stop stop-color="#3BB094"/>
<stop offset="1" stop-color="#232030"/>
</linearGradient>
</defs>
</svg>
