<svg width="393" height="852" viewBox="0 0 393 852" fill="none" xmlns="http://www.w3.org/2000/svg">
<rect width="393" height="852" fill="#0E0E0E"/>
<g filter="url(#filter0_f_259_5551)">
<path d="M286.5 197L287.286 199.418H289.829L287.771 200.913L288.557 203.332L286.5 201.837L284.443 203.332L285.229 200.913L283.171 199.418H285.714L286.5 197Z" fill="white"/>
</g>
<g filter="url(#filter1_f_259_5551)">
<path d="M60.5 501L61.2858 503.418H63.8287L61.7714 504.913L62.5572 507.332L60.5 505.837L58.4428 507.332L59.2286 504.913L57.1713 503.418H59.7142L60.5 501Z" fill="white"/>
</g>
<g filter="url(#filter2_f_259_5551)">
<path d="M170 533L170.449 534.382H171.902L170.727 535.236L171.176 536.618L170 535.764L168.824 536.618L169.273 535.236L168.098 534.382H169.551L170 533Z" fill="white"/>
</g>
<g filter="url(#filter3_f_259_5551)">
<path d="M352 537L352.449 538.382H353.902L352.727 539.236L353.176 540.618L352 539.764L350.824 540.618L351.273 539.236L350.098 538.382H351.551L352 537Z" fill="white"/>
</g>
<g filter="url(#filter4_f_259_5551)">
<path d="M318 752L318.449 753.382H319.902L318.727 754.236L319.176 755.618L318 754.764L316.824 755.618L317.273 754.236L316.098 753.382H317.551L318 752Z" fill="white"/>
</g>
<g filter="url(#filter5_f_259_5551)">
<path d="M187 738L187.449 739.382H188.902L187.727 740.236L188.176 741.618L187 740.764L185.824 741.618L186.273 740.236L185.098 739.382H186.551L187 738Z" fill="white"/>
</g>
<g filter="url(#filter6_f_259_5551)">
<path d="M33 748L33.449 749.382H34.9021L33.7265 750.236L34.1756 751.618L33 750.764L31.8244 751.618L32.2735 750.236L31.0979 749.382H32.551L33 748Z" fill="white"/>
</g>
<g filter="url(#filter7_f_259_5551)">
<path d="M292.5 452L293.061 453.727H294.878L293.408 454.795L293.969 456.523L292.5 455.455L291.031 456.523L291.592 454.795L290.122 453.727H291.939L292.5 452Z" fill="white"/>
</g>
<g filter="url(#filter8_f_259_5551)">
<path d="M162.5 189L163.061 190.727H164.878L163.408 191.795L163.969 193.523L162.5 192.455L161.031 193.523L161.592 191.795L160.122 190.727H161.939L162.5 189Z" fill="white"/>
</g>
<g filter="url(#filter9_f_259_5551)">
<path d="M216.5 237L217.061 238.727H218.878L217.408 239.795L217.969 241.523L216.5 240.455L215.031 241.523L215.592 239.795L214.122 238.727H215.939L216.5 237Z" fill="white"/>
</g>
<g filter="url(#filter10_f_259_5551)">
<path d="M370.5 195L371.061 196.727H372.878L371.408 197.795L371.969 199.523L370.5 198.455L369.031 199.523L369.592 197.795L368.122 196.727H369.939L370.5 195Z" fill="white"/>
</g>
<g filter="url(#filter11_f_259_5551)">
<path d="M245.5 489L246.061 490.727H247.878L246.408 491.795L246.969 493.523L245.5 492.455L244.031 493.523L244.592 491.795L243.122 490.727H244.939L245.5 489Z" fill="white"/>
</g>
<g filter="url(#filter12_f_259_5551)">
<path d="M28.5 189L29.0613 190.727H30.8776L29.4082 191.795L29.9695 193.523L28.5 192.455L27.0305 193.523L27.5918 191.795L26.1224 190.727H27.9387L28.5 189Z" fill="white"/>
</g>
<g filter="url(#filter13_f_259_5551)">
<path d="M353.5 330L354.061 331.727H355.878L354.408 332.795L354.969 334.523L353.5 333.455L352.031 334.523L352.592 332.795L351.122 331.727H352.939L353.5 330Z" fill="white"/>
</g>
<defs>
<filter id="filter0_f_259_5551" x="282.171" y="196" width="8.65735" height="8.33154" filterUnits="userSpaceOnUse" color-interpolation-filters="sRGB">
<feFlood flood-opacity="0" result="BackgroundImageFix"/>
<feBlend mode="normal" in="SourceGraphic" in2="BackgroundImageFix" result="shape"/>
<feGaussianBlur stdDeviation="0.5" result="effect1_foregroundBlur_259_5551"/>
</filter>
<filter id="filter1_f_259_5551" x="56.1713" y="500" width="8.65741" height="8.33154" filterUnits="userSpaceOnUse" color-interpolation-filters="sRGB">
<feFlood flood-opacity="0" result="BackgroundImageFix"/>
<feBlend mode="normal" in="SourceGraphic" in2="BackgroundImageFix" result="shape"/>
<feGaussianBlur stdDeviation="0.5" result="effect1_foregroundBlur_259_5551"/>
</filter>
<filter id="filter2_f_259_5551" x="167.526" y="532.429" width="4.94706" height="4.7609" filterUnits="userSpaceOnUse" color-interpolation-filters="sRGB">
<feFlood flood-opacity="0" result="BackgroundImageFix"/>
<feBlend mode="normal" in="SourceGraphic" in2="BackgroundImageFix" result="shape"/>
<feGaussianBlur stdDeviation="0.285714" result="effect1_foregroundBlur_259_5551"/>
</filter>
<filter id="filter3_f_259_5551" x="349.526" y="536.429" width="4.94706" height="4.7609" filterUnits="userSpaceOnUse" color-interpolation-filters="sRGB">
<feFlood flood-opacity="0" result="BackgroundImageFix"/>
<feBlend mode="normal" in="SourceGraphic" in2="BackgroundImageFix" result="shape"/>
<feGaussianBlur stdDeviation="0.285714" result="effect1_foregroundBlur_259_5551"/>
</filter>
<filter id="filter4_f_259_5551" x="315.526" y="751.429" width="4.94706" height="4.7609" filterUnits="userSpaceOnUse" color-interpolation-filters="sRGB">
<feFlood flood-opacity="0" result="BackgroundImageFix"/>
<feBlend mode="normal" in="SourceGraphic" in2="BackgroundImageFix" result="shape"/>
<feGaussianBlur stdDeviation="0.285714" result="effect1_foregroundBlur_259_5551"/>
</filter>
<filter id="filter5_f_259_5551" x="184.526" y="737.429" width="4.94706" height="4.7609" filterUnits="userSpaceOnUse" color-interpolation-filters="sRGB">
<feFlood flood-opacity="0" result="BackgroundImageFix"/>
<feBlend mode="normal" in="SourceGraphic" in2="BackgroundImageFix" result="shape"/>
<feGaussianBlur stdDeviation="0.285714" result="effect1_foregroundBlur_259_5551"/>
</filter>
<filter id="filter6_f_259_5551" x="30.5265" y="747.429" width="4.94706" height="4.7609" filterUnits="userSpaceOnUse" color-interpolation-filters="sRGB">
<feFlood flood-opacity="0" result="BackgroundImageFix"/>
<feBlend mode="normal" in="SourceGraphic" in2="BackgroundImageFix" result="shape"/>
<feGaussianBlur stdDeviation="0.285714" result="effect1_foregroundBlur_259_5551"/>
</filter>
<filter id="filter7_f_259_5551" x="289.408" y="451.286" width="6.18382" height="5.95109" filterUnits="userSpaceOnUse" color-interpolation-filters="sRGB">
<feFlood flood-opacity="0" result="BackgroundImageFix"/>
<feBlend mode="normal" in="SourceGraphic" in2="BackgroundImageFix" result="shape"/>
<feGaussianBlur stdDeviation="0.357143" result="effect1_foregroundBlur_259_5551"/>
</filter>
<filter id="filter8_f_259_5551" x="159.408" y="188.286" width="6.18388" height="5.95115" filterUnits="userSpaceOnUse" color-interpolation-filters="sRGB">
<feFlood flood-opacity="0" result="BackgroundImageFix"/>
<feBlend mode="normal" in="SourceGraphic" in2="BackgroundImageFix" result="shape"/>
<feGaussianBlur stdDeviation="0.357143" result="effect1_foregroundBlur_259_5551"/>
</filter>
<filter id="filter9_f_259_5551" x="213.408" y="236.286" width="6.18382" height="5.95115" filterUnits="userSpaceOnUse" color-interpolation-filters="sRGB">
<feFlood flood-opacity="0" result="BackgroundImageFix"/>
<feBlend mode="normal" in="SourceGraphic" in2="BackgroundImageFix" result="shape"/>
<feGaussianBlur stdDeviation="0.357143" result="effect1_foregroundBlur_259_5551"/>
</filter>
<filter id="filter10_f_259_5551" x="367.408" y="194.286" width="6.18382" height="5.95115" filterUnits="userSpaceOnUse" color-interpolation-filters="sRGB">
<feFlood flood-opacity="0" result="BackgroundImageFix"/>
<feBlend mode="normal" in="SourceGraphic" in2="BackgroundImageFix" result="shape"/>
<feGaussianBlur stdDeviation="0.357143" result="effect1_foregroundBlur_259_5551"/>
</filter>
<filter id="filter11_f_259_5551" x="242.408" y="488.286" width="6.18382" height="5.95109" filterUnits="userSpaceOnUse" color-interpolation-filters="sRGB">
<feFlood flood-opacity="0" result="BackgroundImageFix"/>
<feBlend mode="normal" in="SourceGraphic" in2="BackgroundImageFix" result="shape"/>
<feGaussianBlur stdDeviation="0.357143" result="effect1_foregroundBlur_259_5551"/>
</filter>
<filter id="filter12_f_259_5551" x="25.4081" y="188.286" width="6.18388" height="5.95115" filterUnits="userSpaceOnUse" color-interpolation-filters="sRGB">
<feFlood flood-opacity="0" result="BackgroundImageFix"/>
<feBlend mode="normal" in="SourceGraphic" in2="BackgroundImageFix" result="shape"/>
<feGaussianBlur stdDeviation="0.357143" result="effect1_foregroundBlur_259_5551"/>
</filter>
<filter id="filter13_f_259_5551" x="350.408" y="329.286" width="6.18382" height="5.95115" filterUnits="userSpaceOnUse" color-interpolation-filters="sRGB">
<feFlood flood-opacity="0" result="BackgroundImageFix"/>
<feBlend mode="normal" in="SourceGraphic" in2="BackgroundImageFix" result="shape"/>
<feGaussianBlur stdDeviation="0.357143" result="effect1_foregroundBlur_259_5551"/>
</filter>
</defs>
</svg>
