<svg width="393" height="852" viewBox="0 0 393 852" fill="none" xmlns="http://www.w3.org/2000/svg">
<rect width="393" height="852" fill="#0E0E0E"/>
<g filter="url(#filter0_f_102_4628)">
<path d="M286.5 197L287.286 199.418H289.829L287.771 200.913L288.557 203.332L286.5 201.837L284.443 203.332L285.229 200.913L283.171 199.418H285.714L286.5 197Z" fill="white"/>
</g>
<g filter="url(#filter1_f_102_4628)">
<path d="M60.5 501L61.2858 503.418H63.8287L61.7714 504.913L62.5572 507.332L60.5 505.837L58.4428 507.332L59.2286 504.913L57.1713 503.418H59.7142L60.5 501Z" fill="white"/>
</g>
<g filter="url(#filter2_f_102_4628)">
<path d="M163 54L163.449 55.382H164.902L163.727 56.2361L164.176 57.618L163 56.7639L161.824 57.618L162.273 56.2361L161.098 55.382H162.551L163 54Z" fill="white"/>
</g>
<g filter="url(#filter3_f_102_4628)">
<path d="M345 58L345.449 59.382H346.902L345.727 60.2361L346.176 61.618L345 60.7639L343.824 61.618L344.273 60.2361L343.098 59.382H344.551L345 58Z" fill="white"/>
</g>
<g filter="url(#filter4_f_102_4628)">
<path d="M318 752L318.449 753.382H319.902L318.727 754.236L319.176 755.618L318 754.764L316.824 755.618L317.273 754.236L316.098 753.382H317.551L318 752Z" fill="white"/>
</g>
<g filter="url(#filter5_f_102_4628)">
<path d="M187 738L187.449 739.382H188.902L187.727 740.236L188.176 741.618L187 740.764L185.824 741.618L186.273 740.236L185.098 739.382H186.551L187 738Z" fill="white"/>
</g>
<g filter="url(#filter6_f_102_4628)">
<path d="M33 748L33.449 749.382H34.9021L33.7265 750.236L34.1756 751.618L33 750.764L31.8244 751.618L32.2735 750.236L31.0979 749.382H32.551L33 748Z" fill="white"/>
</g>
<g filter="url(#filter7_f_102_4628)">
<path d="M292.5 452L293.061 453.727H294.878L293.408 454.795L293.969 456.523L292.5 455.455L291.031 456.523L291.592 454.795L290.122 453.727H291.939L292.5 452Z" fill="white"/>
</g>
<g filter="url(#filter8_f_102_4628)">
<path d="M162.5 189L163.061 190.727H164.878L163.408 191.795L163.969 193.523L162.5 192.455L161.031 193.523L161.592 191.795L160.122 190.727H161.939L162.5 189Z" fill="white"/>
</g>
<g filter="url(#filter9_f_102_4628)">
<path d="M216.5 237L217.061 238.727H218.878L217.408 239.795L217.969 241.523L216.5 240.455L215.031 241.523L215.592 239.795L214.122 238.727H215.939L216.5 237Z" fill="white"/>
</g>
<g filter="url(#filter10_f_102_4628)">
<path d="M370.5 195L371.061 196.727H372.878L371.408 197.795L371.969 199.523L370.5 198.455L369.031 199.523L369.592 197.795L368.122 196.727H369.939L370.5 195Z" fill="white"/>
</g>
<g filter="url(#filter11_f_102_4628)">
<path d="M245.5 489L246.061 490.727H247.878L246.408 491.795L246.969 493.523L245.5 492.455L244.031 493.523L244.592 491.795L243.122 490.727H244.939L245.5 489Z" fill="white"/>
</g>
<g filter="url(#filter12_f_102_4628)">
<path d="M28.5 189L29.0613 190.727H30.8776L29.4082 191.795L29.9695 193.523L28.5 192.455L27.0305 193.523L27.5918 191.795L26.1224 190.727H27.9387L28.5 189Z" fill="white"/>
</g>
<g filter="url(#filter13_f_102_4628)">
<path d="M353.5 330L354.061 331.727H355.878L354.408 332.795L354.969 334.523L353.5 333.455L352.031 334.523L352.592 332.795L351.122 331.727H352.939L353.5 330Z" fill="white"/>
</g>
<g filter="url(#filter14_f_102_4628)">
<path d="M52.5 672L53.2858 674.418H55.8287L53.7714 675.913L54.5572 678.332L52.5 676.837L50.4428 678.332L51.2286 675.913L49.1713 674.418H51.7142L52.5 672Z" fill="white"/>
</g>
<g filter="url(#filter15_f_102_4628)">
<path d="M284.5 623L285.061 624.727H286.878L285.408 625.795L285.969 627.523L284.5 626.455L283.031 627.523L283.592 625.795L282.122 624.727H283.939L284.5 623Z" fill="white"/>
</g>
<g filter="url(#filter16_f_102_4628)">
<path d="M237.5 660L238.061 661.727H239.878L238.408 662.795L238.969 664.523L237.5 663.455L236.031 664.523L236.592 662.795L235.122 661.727H236.939L237.5 660Z" fill="white"/>
</g>
<g filter="url(#filter17_f_102_4628)">
<path d="M345.5 501L346.061 502.727H347.878L346.408 503.795L346.969 505.523L345.5 504.455L344.031 505.523L344.592 503.795L343.122 502.727H344.939L345.5 501Z" fill="white"/>
</g>
<g filter="url(#filter18_f_102_4628)">
<path d="M24.5 333L25.2858 335.418H27.8287L25.7714 336.913L26.5572 339.332L24.5 337.837L22.4428 339.332L23.2286 336.913L21.1713 335.418H23.7142L24.5 333Z" fill="white"/>
</g>
<g filter="url(#filter19_f_102_4628)">
<path d="M256.5 284L257.061 285.727H258.878L257.408 286.795L257.969 288.523L256.5 287.455L255.031 288.523L255.592 286.795L254.122 285.727H255.939L256.5 284Z" fill="white"/>
</g>
<g filter="url(#filter20_f_102_4628)">
<path d="M209.5 321L210.061 322.727H211.878L210.408 323.795L210.969 325.523L209.5 324.455L208.031 325.523L208.592 323.795L207.122 322.727H208.939L209.5 321Z" fill="white"/>
</g>
<g filter="url(#filter21_f_102_4628)">
<path d="M317.5 162L318.061 163.727H319.878L318.408 164.795L318.969 166.523L317.5 165.455L316.031 166.523L316.592 164.795L315.122 163.727H316.939L317.5 162Z" fill="white"/>
</g>
<defs>
<filter id="filter0_f_102_4628" x="282.171" y="196" width="8.65747" height="8.33156" filterUnits="userSpaceOnUse" color-interpolation-filters="sRGB">
<feFlood flood-opacity="0" result="BackgroundImageFix"/>
<feBlend mode="normal" in="SourceGraphic" in2="BackgroundImageFix" result="shape"/>
<feGaussianBlur stdDeviation="0.5" result="effect1_foregroundBlur_102_4628"/>
</filter>
<filter id="filter1_f_102_4628" x="56.1713" y="500" width="8.65735" height="8.33156" filterUnits="userSpaceOnUse" color-interpolation-filters="sRGB">
<feFlood flood-opacity="0" result="BackgroundImageFix"/>
<feBlend mode="normal" in="SourceGraphic" in2="BackgroundImageFix" result="shape"/>
<feGaussianBlur stdDeviation="0.5" result="effect1_foregroundBlur_102_4628"/>
</filter>
<filter id="filter2_f_102_4628" x="160.526" y="53.4286" width="4.94706" height="4.7609" filterUnits="userSpaceOnUse" color-interpolation-filters="sRGB">
<feFlood flood-opacity="0" result="BackgroundImageFix"/>
<feBlend mode="normal" in="SourceGraphic" in2="BackgroundImageFix" result="shape"/>
<feGaussianBlur stdDeviation="0.285714" result="effect1_foregroundBlur_102_4628"/>
</filter>
<filter id="filter3_f_102_4628" x="342.526" y="57.4286" width="4.94706" height="4.7609" filterUnits="userSpaceOnUse" color-interpolation-filters="sRGB">
<feFlood flood-opacity="0" result="BackgroundImageFix"/>
<feBlend mode="normal" in="SourceGraphic" in2="BackgroundImageFix" result="shape"/>
<feGaussianBlur stdDeviation="0.285714" result="effect1_foregroundBlur_102_4628"/>
</filter>
<filter id="filter4_f_102_4628" x="315.526" y="751.429" width="4.94706" height="4.7609" filterUnits="userSpaceOnUse" color-interpolation-filters="sRGB">
<feFlood flood-opacity="0" result="BackgroundImageFix"/>
<feBlend mode="normal" in="SourceGraphic" in2="BackgroundImageFix" result="shape"/>
<feGaussianBlur stdDeviation="0.285714" result="effect1_foregroundBlur_102_4628"/>
</filter>
<filter id="filter5_f_102_4628" x="184.526" y="737.429" width="4.94706" height="4.7609" filterUnits="userSpaceOnUse" color-interpolation-filters="sRGB">
<feFlood flood-opacity="0" result="BackgroundImageFix"/>
<feBlend mode="normal" in="SourceGraphic" in2="BackgroundImageFix" result="shape"/>
<feGaussianBlur stdDeviation="0.285714" result="effect1_foregroundBlur_102_4628"/>
</filter>
<filter id="filter6_f_102_4628" x="30.5265" y="747.429" width="4.94706" height="4.7609" filterUnits="userSpaceOnUse" color-interpolation-filters="sRGB">
<feFlood flood-opacity="0" result="BackgroundImageFix"/>
<feBlend mode="normal" in="SourceGraphic" in2="BackgroundImageFix" result="shape"/>
<feGaussianBlur stdDeviation="0.285714" result="effect1_foregroundBlur_102_4628"/>
</filter>
<filter id="filter7_f_102_4628" x="289.408" y="451.286" width="6.18394" height="5.95111" filterUnits="userSpaceOnUse" color-interpolation-filters="sRGB">
<feFlood flood-opacity="0" result="BackgroundImageFix"/>
<feBlend mode="normal" in="SourceGraphic" in2="BackgroundImageFix" result="shape"/>
<feGaussianBlur stdDeviation="0.357143" result="effect1_foregroundBlur_102_4628"/>
</filter>
<filter id="filter8_f_102_4628" x="159.408" y="188.286" width="6.18382" height="5.95111" filterUnits="userSpaceOnUse" color-interpolation-filters="sRGB">
<feFlood flood-opacity="0" result="BackgroundImageFix"/>
<feBlend mode="normal" in="SourceGraphic" in2="BackgroundImageFix" result="shape"/>
<feGaussianBlur stdDeviation="0.357143" result="effect1_foregroundBlur_102_4628"/>
</filter>
<filter id="filter9_f_102_4628" x="213.408" y="236.286" width="6.18382" height="5.95111" filterUnits="userSpaceOnUse" color-interpolation-filters="sRGB">
<feFlood flood-opacity="0" result="BackgroundImageFix"/>
<feBlend mode="normal" in="SourceGraphic" in2="BackgroundImageFix" result="shape"/>
<feGaussianBlur stdDeviation="0.357143" result="effect1_foregroundBlur_102_4628"/>
</filter>
<filter id="filter10_f_102_4628" x="367.408" y="194.286" width="6.18394" height="5.95111" filterUnits="userSpaceOnUse" color-interpolation-filters="sRGB">
<feFlood flood-opacity="0" result="BackgroundImageFix"/>
<feBlend mode="normal" in="SourceGraphic" in2="BackgroundImageFix" result="shape"/>
<feGaussianBlur stdDeviation="0.357143" result="effect1_foregroundBlur_102_4628"/>
</filter>
<filter id="filter11_f_102_4628" x="242.408" y="488.286" width="6.18382" height="5.95112" filterUnits="userSpaceOnUse" color-interpolation-filters="sRGB">
<feFlood flood-opacity="0" result="BackgroundImageFix"/>
<feBlend mode="normal" in="SourceGraphic" in2="BackgroundImageFix" result="shape"/>
<feGaussianBlur stdDeviation="0.357143" result="effect1_foregroundBlur_102_4628"/>
</filter>
<filter id="filter12_f_102_4628" x="25.4081" y="188.286" width="6.18382" height="5.95111" filterUnits="userSpaceOnUse" color-interpolation-filters="sRGB">
<feFlood flood-opacity="0" result="BackgroundImageFix"/>
<feBlend mode="normal" in="SourceGraphic" in2="BackgroundImageFix" result="shape"/>
<feGaussianBlur stdDeviation="0.357143" result="effect1_foregroundBlur_102_4628"/>
</filter>
<filter id="filter13_f_102_4628" x="350.408" y="329.286" width="6.18394" height="5.95112" filterUnits="userSpaceOnUse" color-interpolation-filters="sRGB">
<feFlood flood-opacity="0" result="BackgroundImageFix"/>
<feBlend mode="normal" in="SourceGraphic" in2="BackgroundImageFix" result="shape"/>
<feGaussianBlur stdDeviation="0.357143" result="effect1_foregroundBlur_102_4628"/>
</filter>
<filter id="filter14_f_102_4628" x="48.1713" y="671" width="8.65735" height="8.33156" filterUnits="userSpaceOnUse" color-interpolation-filters="sRGB">
<feFlood flood-opacity="0" result="BackgroundImageFix"/>
<feBlend mode="normal" in="SourceGraphic" in2="BackgroundImageFix" result="shape"/>
<feGaussianBlur stdDeviation="0.5" result="effect1_foregroundBlur_102_4628"/>
</filter>
<filter id="filter15_f_102_4628" x="281.408" y="622.286" width="6.18394" height="5.95111" filterUnits="userSpaceOnUse" color-interpolation-filters="sRGB">
<feFlood flood-opacity="0" result="BackgroundImageFix"/>
<feBlend mode="normal" in="SourceGraphic" in2="BackgroundImageFix" result="shape"/>
<feGaussianBlur stdDeviation="0.357143" result="effect1_foregroundBlur_102_4628"/>
</filter>
<filter id="filter16_f_102_4628" x="234.408" y="659.286" width="6.18382" height="5.95111" filterUnits="userSpaceOnUse" color-interpolation-filters="sRGB">
<feFlood flood-opacity="0" result="BackgroundImageFix"/>
<feBlend mode="normal" in="SourceGraphic" in2="BackgroundImageFix" result="shape"/>
<feGaussianBlur stdDeviation="0.357143" result="effect1_foregroundBlur_102_4628"/>
</filter>
<filter id="filter17_f_102_4628" x="342.408" y="500.286" width="6.18394" height="5.95112" filterUnits="userSpaceOnUse" color-interpolation-filters="sRGB">
<feFlood flood-opacity="0" result="BackgroundImageFix"/>
<feBlend mode="normal" in="SourceGraphic" in2="BackgroundImageFix" result="shape"/>
<feGaussianBlur stdDeviation="0.357143" result="effect1_foregroundBlur_102_4628"/>
</filter>
<filter id="filter18_f_102_4628" x="20.1713" y="332" width="8.65735" height="8.33156" filterUnits="userSpaceOnUse" color-interpolation-filters="sRGB">
<feFlood flood-opacity="0" result="BackgroundImageFix"/>
<feBlend mode="normal" in="SourceGraphic" in2="BackgroundImageFix" result="shape"/>
<feGaussianBlur stdDeviation="0.5" result="effect1_foregroundBlur_102_4628"/>
</filter>
<filter id="filter19_f_102_4628" x="253.408" y="283.286" width="6.18394" height="5.95111" filterUnits="userSpaceOnUse" color-interpolation-filters="sRGB">
<feFlood flood-opacity="0" result="BackgroundImageFix"/>
<feBlend mode="normal" in="SourceGraphic" in2="BackgroundImageFix" result="shape"/>
<feGaussianBlur stdDeviation="0.357143" result="effect1_foregroundBlur_102_4628"/>
</filter>
<filter id="filter20_f_102_4628" x="206.408" y="320.286" width="6.18382" height="5.95112" filterUnits="userSpaceOnUse" color-interpolation-filters="sRGB">
<feFlood flood-opacity="0" result="BackgroundImageFix"/>
<feBlend mode="normal" in="SourceGraphic" in2="BackgroundImageFix" result="shape"/>
<feGaussianBlur stdDeviation="0.357143" result="effect1_foregroundBlur_102_4628"/>
</filter>
<filter id="filter21_f_102_4628" x="314.408" y="161.286" width="6.18394" height="5.95112" filterUnits="userSpaceOnUse" color-interpolation-filters="sRGB">
<feFlood flood-opacity="0" result="BackgroundImageFix"/>
<feBlend mode="normal" in="SourceGraphic" in2="BackgroundImageFix" result="shape"/>
<feGaussianBlur stdDeviation="0.357143" result="effect1_foregroundBlur_102_4628"/>
</filter>
</defs>
</svg>
