<svg width="438" height="437" viewBox="0 0 438 437" fill="none" xmlns="http://www.w3.org/2000/svg">
<g filter="url(#filter0_d_15_9725)">
<g clip-path="url(#clip0_15_9725)">
<rect x="109.937" y="108.851" width="218.431" height="218.431" rx="109.215" fill="url(#paint0_linear_15_9725)"/>
<g filter="url(#filter1_d_15_9725)">
<path fill-rule="evenodd" clip-rule="evenodd" d="M78.8501 145.236L88.3039 136.753C92.47 133.015 90.041 126.105 84.4519 125.796C82.2219 125.673 80.0939 126.742 78.8617 128.605L77.522 130.63C76.8045 131.715 76.5472 133.04 76.8068 134.314L76.9713 135.122C77.3082 136.776 76.5145 138.454 75.0221 139.243L74.7666 139.378C72.5791 140.535 72.1849 143.503 73.9948 145.19C75.3572 146.46 77.4638 146.48 78.8501 145.236ZM73.3949 133.639L72.47 131.512C71.7995 129.969 69.8768 129.439 68.5101 130.419C67.8146 130.918 67.4042 131.723 67.409 132.579L67.422 134.899C67.4312 136.555 68.7342 137.914 70.3883 137.993C72.694 138.104 74.3151 135.756 73.3949 133.639ZM59.4665 139.234L60.8257 137.354C61.811 135.991 61.2875 134.066 59.7474 133.39C58.9637 133.046 58.0619 133.103 57.328 133.544L55.3385 134.737C53.9186 135.589 53.4132 137.403 54.188 138.867C55.268 140.907 58.1141 141.105 59.4665 139.234ZM125.972 236.361V235.74C125.972 230.835 128.287 226.218 132.217 223.284L133.815 222.091C138.423 218.651 144.312 217.417 149.913 218.718L151.326 219.047L164.543 222.104C164.973 222.204 165.417 222.221 165.854 222.156L168.389 221.777C170.539 221.456 171.231 218.699 169.489 217.4C168.87 216.938 168.505 216.212 168.505 215.44V215.27C168.505 213.969 169.407 212.842 170.677 212.556L173.922 211.827C175.912 211.38 177.029 209.258 176.272 207.365C175.768 206.107 174.551 205.283 173.196 205.283H171.747C169.749 205.283 167.911 206.376 166.957 208.131L166.103 209.703C165.98 209.929 165.84 210.147 165.686 210.353C163.424 213.368 158.829 213.131 156.89 209.899L156.559 209.347C155.143 206.987 152.253 205.965 149.668 206.908L142.071 209.682C141.415 209.921 140.796 210.255 140.235 210.673L135.694 214.052C133.966 215.338 131.487 214.552 130.816 212.506C130.346 211.075 130.955 209.512 132.268 208.774L133.661 207.992C135.048 207.214 135.907 205.747 135.907 204.156C135.907 202.78 136.551 201.483 137.647 200.651L144.099 195.756C144.632 195.352 145.062 194.827 145.355 194.226C146.193 192.504 148.076 191.552 149.959 191.9L153.065 192.473C155.664 192.952 158.275 191.691 159.515 189.356L160.15 188.162C160.653 187.214 160.677 186.084 160.213 185.116C159.037 182.658 155.585 182.531 154.231 184.896L153.094 186.88C152.203 188.435 150.078 188.719 148.811 187.452L148.658 187.298C148.246 186.886 147.687 186.655 147.105 186.655C145.893 186.655 144.91 185.672 144.91 184.46V181.098C144.91 179.934 145.275 178.799 145.955 177.854L151.445 170.217C154.384 166.13 159.483 164.198 164.393 165.312L169.5 166.471C170.366 166.668 171.078 167.282 171.4 168.11L171.435 168.199C171.937 169.49 171.328 170.946 170.058 171.495L169.371 171.792C168.845 172.02 168.505 172.538 168.505 173.111C168.505 173.904 169.148 174.547 169.941 174.547H171.624C173.118 174.547 174.402 173.488 174.686 172.021L174.922 170.799C175.241 169.152 176.427 167.806 178.021 167.283L186.433 164.52C188.397 163.875 189.854 162.212 190.237 160.181C190.673 157.865 192.496 156.06 194.816 155.647L195.699 155.49C197.504 155.168 199.11 154.149 200.169 152.652L208.642 140.669C210.538 137.989 213.84 136.687 217.055 137.352L217.749 137.495C219.664 137.892 221.311 139.104 222.259 140.815C223.847 143.68 227.271 144.981 230.36 143.892L232.849 143.015C234.763 142.341 236.879 142.568 238.607 143.633C240.743 144.95 243.436 144.967 245.588 143.675L248.665 141.829C251.105 140.365 253.969 139.769 256.79 140.138L265.832 141.319C268.98 141.731 272.18 141.257 275.073 139.951C277.735 138.75 280.661 138.252 283.571 138.503L293.7 139.378C295.054 139.495 296.234 140.346 296.774 141.594C297.261 142.721 297.157 144.018 296.494 145.053L295.733 146.241C294.782 147.727 294.493 149.542 294.933 151.251L295.332 152.794C295.704 154.238 295.75 155.748 295.464 157.212L294.674 161.258C294.406 162.635 293.442 163.774 292.128 164.267C290.439 164.9 289.374 166.576 289.519 168.374L290.615 181.991C290.676 182.755 290.14 183.437 289.384 183.558C288.667 183.673 287.974 183.245 287.754 182.553L285.422 175.219C284.151 171.219 280.014 168.871 275.928 169.83C274.056 170.27 272.404 171.365 271.271 172.918L270.352 174.178C268.006 177.394 267.371 181.55 268.648 185.321L271.345 193.281C272.383 196.344 271.674 199.729 269.495 202.119L267.931 203.835C267.097 204.75 266.725 205.995 266.92 207.217L267.081 208.222C267.454 210.549 265.379 212.529 263.071 212.048C260.666 211.547 258.552 213.709 259.106 216.103L260.711 223.029C261.406 226.028 260.298 229.158 257.871 231.052L255.002 233.289C253.381 234.555 252.433 236.496 252.433 238.553V242.234C252.433 243.888 251.092 245.229 249.438 245.229H247.33C246.453 245.229 245.809 246.053 246.022 246.905C246.38 248.337 244.506 249.221 243.629 248.033L236.041 237.761C234.973 236.315 233.052 235.792 231.399 236.497L228.87 237.576C227.31 238.242 226.028 239.426 225.241 240.929L221.526 248.021C221.173 248.694 220.239 248.77 219.782 248.162L211.414 237.026C208.761 233.495 204.974 230.984 200.69 229.913L195.927 228.355C194.177 227.782 192.791 229.888 194.01 231.27C194.183 231.466 194.398 231.623 194.638 231.729L194.796 231.798C196.529 232.559 196.884 234.862 195.461 236.11L193.225 238.07C191.856 239.27 189.898 239.522 188.27 238.709L186.342 237.745C183.181 236.164 179.693 239.213 180.837 242.557C181.384 244.155 182.886 245.229 184.575 245.229H184.683C187.643 245.229 189.629 248.268 188.44 250.978L183.621 261.965C183.341 262.604 183.117 263.266 182.953 263.944L180.744 273.037C180.044 275.921 178.732 278.62 176.896 280.952L168.101 292.129C166.722 293.88 164.617 294.903 162.388 294.903C160.411 294.903 158.52 294.098 157.15 292.674L155.203 290.651C152.716 288.067 151.326 284.62 151.326 281.034V270.48L150.231 261.58C149.87 258.649 148.435 255.956 146.203 254.021C144.416 252.472 142.208 251.489 139.86 251.198L138.982 251.089C131.551 250.165 125.972 243.85 125.972 236.361ZM68.0643 150.217L66.4792 152.413C64.9007 154.599 61.5749 154.368 60.3144 151.984C59.4117 150.276 60.0011 148.161 61.6567 147.166L63.9781 145.771C64.8356 145.256 65.8899 145.189 66.8058 145.592C68.6019 146.381 69.2127 148.626 68.0643 150.217ZM72.2597 153.717L70.6608 154.842C69.9777 155.323 69.5712 156.106 69.5712 156.941C69.5712 157.847 70.0492 158.686 70.8287 159.149L74.775 161.489C77.0663 162.848 78.4711 165.314 78.4711 167.978V168.416C78.4711 169.581 78.8071 170.721 79.4388 171.7L80.3473 173.109C81.6099 175.066 84.1958 175.671 86.1956 174.477C87.8677 173.479 88.6664 171.487 88.1464 169.61L85.4873 160.015C84.7153 157.229 82.7232 154.942 80.0693 153.796L78.4149 153.082C76.3924 152.209 74.0613 152.449 72.2597 153.717ZM108.471 130.376L92.8413 139.544C91.5041 140.328 90.6826 141.763 90.6826 143.313C90.6826 144.43 91.1108 145.505 91.8791 146.317L94.6079 149.199C97.9089 152.685 99.2451 157.593 98.1673 162.272L95.876 172.218C95.5375 173.688 95.8966 175.231 96.849 176.4C98.5367 178.471 101.575 178.802 103.669 177.142L114.075 168.892C117.791 165.947 120.221 161.677 120.857 156.979L121.342 153.395C121.599 151.499 122.117 149.649 122.881 147.896L124.824 143.441C125.575 141.72 125.843 139.826 125.598 137.964C125.018 133.547 121.672 129.999 117.297 129.16L116.462 129C113.72 128.475 110.88 128.964 108.471 130.376ZM-9.0256 172.011C-10.4567 164.334 -9.19327 148.466 6.16776 141.7C6.4867 141.559 6.80568 141.411 7.12576 141.262C8.47141 140.637 9.8363 140.003 11.2977 139.897C14.3237 139.679 19.0329 141.32 24.429 148.178C24.6251 148.427 24.8112 148.668 24.991 148.901C26.2815 150.572 27.252 151.829 29.3266 152.765C33.2714 154.544 35.908 150.997 38.5569 147.434C41.1984 143.88 43.8521 140.311 47.8275 141.989C48.9393 142.459 50.3123 143.391 51.9945 144.907C53.7561 146.495 55.025 148.56 55.9205 150.756L57.8179 155.409C58.5183 157.127 59.8737 158.495 61.5846 159.212C66.1193 161.111 67.3217 166.978 63.8995 170.508L59.5724 174.971C56.8282 177.802 56.9565 182.338 59.8563 185.008L61.5137 186.535C63.9911 188.817 67.9484 188.193 69.6041 185.26C71.4759 181.945 76.1514 181.68 78.3856 184.763L81.9922 189.739C84.7964 193.608 84.1587 198.983 80.5268 202.088L59.3299 220.214C58.2766 221.115 57.6702 222.432 57.6702 223.818C57.6702 227.178 54.2706 229.472 51.1546 228.214L48.9696 227.331C45.1623 225.794 41.0087 228.597 41.0087 232.703C41.0087 234.701 42.0386 236.558 43.7337 237.616L53.5671 243.755C56.9713 245.88 61.114 246.471 64.9763 245.381C68.8266 244.295 72.9562 244.878 76.3551 246.989L96.0434 259.211C100.909 262.231 102.396 268.629 99.3621 273.486L80.7126 303.34C79.706 304.952 78.9261 306.694 78.3948 308.518L76.9412 313.509C76.3867 315.412 76.4064 317.438 76.9979 319.33L78.7476 324.93C79.0143 325.783 78.6979 326.711 77.9653 327.224C76.9645 327.925 75.5772 327.602 74.9887 326.531L68.1846 314.153C66.9896 311.979 66.3631 309.539 66.3631 307.059V285.455C66.3631 280.984 64.5139 276.713 61.2539 273.653L59.2877 271.807C56.3584 269.058 55.0879 264.972 55.9413 261.047C56.9761 256.287 54.88 251.394 50.7202 248.859L37.0251 240.515C35.9692 239.871 35.0739 238.996 34.4072 237.954L24.6167 222.662C24.0152 221.722 22.5712 222.023 22.3949 223.125C22.1971 224.361 20.4842 224.525 20.0551 223.349L16.0399 212.342C15.7872 211.649 15.7187 210.903 15.8411 210.175L17.9852 197.441C18.6909 193.25 18.0892 188.943 16.262 185.106L10.8016 173.639C9.53043 170.97 6.83726 169.269 3.8805 169.269H3.62361C2.16138 169.269 0.737179 169.735 -0.442403 170.599L-4.67466 173.7C-6.12533 174.762 -8.18829 174.182 -8.87299 172.52C-8.94126 172.354 -8.99274 172.187 -9.0256 172.011ZM255.738 254.084L255.036 254.91C253.633 256.563 253.761 259.024 255.329 260.522L256.009 261.172C256.738 261.868 257.792 262.105 258.748 261.786C259.859 261.416 260.609 260.376 260.609 259.205V255.873C260.609 254.861 260.056 253.931 259.168 253.446C258.018 252.819 256.586 253.085 255.738 254.084ZM255.02 288.255V290.582C255.02 295.026 258.623 298.628 263.067 298.628C263.974 298.628 264.875 298.475 265.731 298.174L267.034 297.717C269.162 296.971 271.489 297.029 273.576 297.881C274.783 298.373 275.872 299.116 276.771 300.06L280.47 303.944C281.224 304.735 282.155 305.335 283.186 305.695C286.253 306.763 289.649 305.54 291.329 302.761L292.766 300.385C293.467 299.225 293.933 297.939 294.136 296.599L295.01 290.829C295.25 289.244 294.956 287.623 294.173 286.223L288.2 275.539C287.389 274.088 285.238 274.303 284.731 275.886C284.478 276.673 283.747 277.206 282.921 277.206H282.41C281.365 277.206 280.421 276.58 280.015 275.617L279.661 274.778C278.725 272.559 276.046 271.676 273.975 272.904L267.953 276.472C267.132 276.959 266.245 277.327 265.32 277.564L262.815 278.207C258.228 279.384 255.02 283.519 255.02 288.255ZM241.566 257.516L244.786 262.586C245.166 263.184 245.825 263.546 246.534 263.546C247.677 263.546 248.604 262.619 248.604 261.476V261.291C248.604 260.743 248.405 260.215 248.044 259.803L244.265 255.494C243.77 254.93 242.962 254.76 242.281 255.076C241.355 255.506 241.018 256.654 241.566 257.516ZM183.871 279.857L187.15 274.826C187.708 273.97 188.892 273.801 189.668 274.466C190.237 274.955 190.417 275.76 190.108 276.444L187.753 281.67C187.528 282.168 187.129 282.569 186.631 282.795L186.463 282.872C185.422 283.346 184.194 282.886 183.721 281.846C183.427 281.201 183.484 280.451 183.871 279.857ZM283.721 266.078L284.141 266.462C284.78 267.049 285.617 267.375 286.485 267.375H288.475C289.342 267.375 290.199 267.567 290.983 267.938L294.141 269.431C294.915 269.797 295.842 269.549 296.33 268.844C296.888 268.038 296.675 266.93 295.858 266.387L287.71 260.982C287.178 260.63 286.554 260.441 285.916 260.441C282.957 260.441 281.542 264.077 283.721 266.078ZM307.589 317.099L302.818 321.136C302.273 321.597 302.095 322.361 302.38 323.016C302.699 323.75 303.507 324.141 304.28 323.934L305.758 323.54C306.897 323.236 307.798 322.363 308.135 321.232L309.079 318.074C309.343 317.189 308.294 316.503 307.589 317.099ZM311.545 311.838L313.361 305.858C313.629 304.975 314.883 304.982 315.141 305.869L316.063 309.033C316.393 310.166 316.111 311.388 315.318 312.262L314.291 313.395C313.754 313.988 312.863 314.098 312.196 313.655C311.602 313.259 311.337 312.521 311.545 311.838Z" fill="#A7CF75"/>
</g>
<g filter="url(#filter2_d_15_9725)">
<path fill-rule="evenodd" clip-rule="evenodd" d="M406.496 145.236L415.95 136.753C420.116 133.015 417.687 126.105 412.098 125.796C409.868 125.673 407.74 126.742 406.507 128.605L405.168 130.63C404.45 131.715 404.193 133.04 404.453 134.314L404.617 135.122C404.954 136.776 404.16 138.454 402.668 139.243L402.412 139.378C400.225 140.535 399.831 143.503 401.64 145.19C403.003 146.46 405.11 146.48 406.496 145.236ZM401.041 133.639L400.116 131.512C399.445 129.969 397.522 129.439 396.156 130.419C395.46 130.918 395.05 131.723 395.055 132.579L395.068 134.899C395.077 136.555 396.38 137.914 398.034 137.993C400.34 138.104 401.961 135.756 401.041 133.639ZM387.112 139.234L388.471 137.354C389.457 135.991 388.933 134.066 387.393 133.39C386.609 133.046 385.708 133.103 384.974 133.544L382.984 134.737C381.564 135.589 381.059 137.403 381.834 138.867C382.914 140.907 385.76 141.105 387.112 139.234ZM453.617 236.361V235.74C453.617 230.835 455.932 226.218 459.862 223.284L461.461 222.091C466.068 218.651 471.958 217.417 477.559 218.718L478.972 219.047L492.189 222.104C492.619 222.204 493.063 222.221 493.499 222.156L496.035 221.777C498.184 221.456 498.877 218.699 497.134 217.4C496.515 216.938 496.151 216.212 496.151 215.44V215.27C496.151 213.969 497.053 212.842 498.323 212.556L501.568 211.827C503.558 211.38 504.675 209.258 503.917 207.365C503.414 206.107 502.196 205.283 500.842 205.283H499.393C497.395 205.283 495.557 206.376 494.603 208.131L493.748 209.703C493.625 209.929 493.486 210.147 493.331 210.353C491.07 213.368 486.475 213.131 484.536 209.899L484.204 209.347C482.789 206.987 479.899 205.965 477.314 206.908L469.717 209.682C469.06 209.921 468.442 210.255 467.881 210.673L463.339 214.052C461.612 215.338 459.133 214.552 458.462 212.506C457.992 211.075 458.6 209.512 459.914 208.774L461.306 207.992C462.694 207.214 463.552 205.747 463.552 204.156C463.552 202.78 464.196 201.483 465.293 200.651L471.745 195.756C472.278 195.352 472.708 194.827 473.001 194.226C473.839 192.504 475.722 191.552 477.605 191.9L480.71 192.473C483.31 192.952 485.921 191.691 487.161 189.356L487.796 188.162C488.299 187.214 488.323 186.084 487.859 185.116C486.682 182.658 483.231 182.531 481.877 184.896L480.74 186.88C479.849 188.435 477.724 188.719 476.457 187.452L476.303 187.298C475.892 186.886 475.333 186.655 474.751 186.655C473.539 186.655 472.556 185.672 472.556 184.46V181.098C472.556 179.934 472.921 178.799 473.601 177.854L479.091 170.217C482.03 166.13 487.129 164.198 492.039 165.312L497.145 166.471C498.012 166.668 498.724 167.282 499.046 168.11L499.081 168.199C499.583 169.49 498.974 170.946 497.703 171.495L497.017 171.792C496.491 172.02 496.151 172.538 496.151 173.111C496.151 173.904 496.794 174.547 497.587 174.547H499.27C500.763 174.547 502.048 173.488 502.331 172.021L502.568 170.799C502.887 169.152 504.073 167.806 505.667 167.283L514.079 164.52C516.042 163.875 517.5 162.212 517.883 160.181C518.319 157.865 520.142 156.06 522.462 155.647L523.345 155.49C525.15 155.168 526.756 154.149 527.814 152.652L536.288 140.669C538.183 137.989 541.486 136.687 544.7 137.352L545.394 137.495C547.31 137.892 548.957 139.104 549.905 140.815C551.493 143.68 554.917 144.981 558.006 143.892L560.494 143.015C562.408 142.341 564.525 142.568 566.252 143.633C568.389 144.95 571.082 144.967 573.234 143.675L576.311 141.829C578.751 140.365 581.614 139.769 584.436 140.138L593.478 141.319C596.625 141.731 599.825 141.257 602.719 139.951C605.381 138.75 608.306 138.252 611.216 138.503L621.345 139.378C622.699 139.495 623.88 140.346 624.419 141.594C624.907 142.721 624.802 144.018 624.14 145.053L623.379 146.241C622.428 147.727 622.138 149.542 622.579 151.251L622.977 152.794C623.35 154.238 623.395 155.748 623.11 157.212L622.32 161.258C622.051 162.635 621.087 163.774 619.773 164.267C618.085 164.9 617.02 166.576 617.165 168.374L618.26 181.991C618.322 182.755 617.786 183.437 617.03 183.558C616.312 183.673 615.619 183.245 615.399 182.553L613.068 175.219C611.796 171.219 607.66 168.871 603.573 169.83C601.702 170.27 600.05 171.365 598.917 172.918L597.998 174.178C595.652 177.394 595.017 181.55 596.294 185.321L598.991 193.281C600.029 196.344 599.32 199.729 597.141 202.119L595.577 203.835C594.743 204.75 594.371 205.995 594.566 207.217L594.727 208.222C595.099 210.549 593.025 212.529 590.717 212.048C588.312 211.547 586.197 213.709 586.752 216.103L588.357 223.029C589.052 226.028 587.944 229.158 585.516 231.052L582.648 233.289C581.027 234.555 580.079 236.496 580.079 238.553V242.234C580.079 243.888 578.738 245.229 577.084 245.229H574.976C574.099 245.229 573.455 246.053 573.668 246.905C574.026 248.337 572.152 249.221 571.275 248.033L563.687 237.761C562.619 236.315 560.698 235.792 559.045 236.497L556.516 237.576C554.956 238.242 553.674 239.426 552.887 240.929L549.172 248.021C548.819 248.694 547.885 248.77 547.428 248.162L539.06 237.026C536.406 233.495 532.62 230.984 528.335 229.913L523.573 228.355C521.822 227.782 520.437 229.888 521.655 231.27C521.829 231.466 522.044 231.623 522.284 231.729L522.441 231.798C524.174 232.559 524.53 234.862 523.107 236.11L520.871 238.07C519.502 239.27 517.543 239.522 515.916 238.709L513.988 237.745C510.826 236.164 507.339 239.213 508.483 242.557C509.03 244.155 510.532 245.229 512.221 245.229H512.329C515.289 245.229 517.275 248.268 516.086 250.978L511.267 261.965C510.987 262.604 510.763 263.266 510.599 263.944L508.39 273.037C507.69 275.921 506.378 278.62 504.542 280.952L495.747 292.129C494.368 293.88 492.262 294.903 490.034 294.903C488.057 294.903 486.166 294.098 484.795 292.674L482.848 290.651C480.361 288.067 478.972 284.62 478.972 281.034V270.48L477.877 261.58C477.516 258.649 476.081 255.956 473.849 254.021C472.061 252.472 469.854 251.489 467.506 251.198L466.628 251.089C459.197 250.165 453.617 243.85 453.617 236.361ZM395.71 150.217L394.125 152.413C392.546 154.599 389.221 154.368 387.96 151.984C387.057 150.276 387.647 148.161 389.302 147.166L391.624 145.771C392.481 145.256 393.536 145.189 394.452 145.592C396.248 146.381 396.858 148.626 395.71 150.217ZM399.905 153.717L398.307 154.842C397.623 155.323 397.217 156.106 397.217 156.941C397.217 157.847 397.695 158.686 398.474 159.149L402.421 161.489C404.712 162.848 406.117 165.314 406.117 167.978V168.416C406.117 169.581 406.453 170.721 407.084 171.7L407.993 173.109C409.256 175.066 411.842 175.671 413.841 174.477C415.513 173.479 416.312 171.487 415.792 169.61L413.133 160.015C412.361 157.229 410.369 154.942 407.715 153.796L406.061 153.082C404.038 152.209 401.707 152.449 399.905 153.717ZM436.117 130.376L420.487 139.544C419.15 140.328 418.328 141.763 418.328 143.313C418.328 144.43 418.757 145.505 419.525 146.317L422.254 149.199C425.555 152.685 426.891 157.593 425.813 162.272L423.522 172.218C423.183 173.688 423.542 175.231 424.495 176.4C426.182 178.471 429.221 178.802 431.315 177.142L441.721 168.892C445.436 165.947 447.867 161.677 448.503 156.979L448.988 153.395C449.244 151.499 449.762 149.649 450.527 147.896L452.47 143.441C453.221 141.72 453.488 139.826 453.244 137.964C452.664 133.547 449.318 129.999 444.943 129.16L444.108 129C441.366 128.475 438.526 128.964 436.117 130.376ZM318.62 172.011C317.189 164.334 318.452 148.466 333.814 141.7C334.132 141.559 334.451 141.411 334.771 141.262L334.771 141.262L334.771 141.262L334.771 141.262L334.771 141.262L334.771 141.262L334.772 141.262C336.117 140.637 337.482 140.003 338.943 139.897C341.969 139.679 346.679 141.32 352.075 148.178C352.271 148.427 352.457 148.668 352.637 148.901C353.927 150.572 354.898 151.829 356.972 152.765C360.917 154.544 363.554 150.997 366.203 147.434C368.844 143.88 371.498 140.311 375.473 141.989C376.585 142.459 377.958 143.391 379.64 144.907C381.402 146.495 382.671 148.56 383.566 150.756L385.464 155.409C386.164 157.127 387.519 158.495 389.23 159.212C393.765 161.111 394.967 166.978 391.545 170.508L387.218 174.971C384.474 177.802 384.602 182.338 387.502 185.008L389.159 186.535C391.637 188.817 395.594 188.193 397.25 185.26C399.122 181.945 403.797 181.68 406.031 184.763L409.638 189.739C412.442 193.608 411.804 198.983 408.173 202.088L386.976 220.214C385.922 221.115 385.316 222.432 385.316 223.818C385.316 227.178 381.916 229.472 378.8 228.214L376.615 227.331C372.808 225.794 368.654 228.597 368.654 232.703C368.654 234.701 369.684 236.558 371.379 237.616L381.213 243.755C384.617 245.88 388.76 246.471 392.622 245.381C396.472 244.295 400.602 244.878 404.001 246.989L423.689 259.211C428.555 262.231 430.042 268.629 427.008 273.486L408.358 303.34C407.352 304.952 406.572 306.694 406.041 308.518L404.587 313.509C404.032 315.412 404.052 317.438 404.644 319.33L406.393 324.93C406.66 325.783 406.344 326.711 405.611 327.224C404.61 327.925 403.223 327.602 402.634 326.531L395.83 314.153C394.635 311.979 394.009 309.539 394.009 307.059V285.455C394.009 280.984 392.16 276.713 388.9 273.653L386.933 271.807C384.004 269.058 382.734 264.972 383.587 261.047C384.622 256.287 382.526 251.394 378.366 248.859L364.671 240.515C363.615 239.871 362.72 238.996 362.053 237.954L352.262 222.662C351.661 221.722 350.217 222.023 350.041 223.125C349.843 224.361 348.13 224.525 347.701 223.349L343.686 212.342C343.433 211.649 343.364 210.903 343.487 210.175L345.631 197.441C346.337 193.25 345.735 188.943 343.908 185.106L338.447 173.639C337.176 170.97 334.483 169.269 331.526 169.269H331.269C329.807 169.269 328.383 169.735 327.203 170.599L322.971 173.7C321.52 174.762 319.457 174.182 318.773 172.52C318.704 172.354 318.653 172.187 318.62 172.011ZM583.384 254.084L582.682 254.91C581.278 256.563 581.407 259.024 582.975 260.522L583.654 261.172C584.383 261.868 585.438 262.105 586.394 261.786C587.505 261.416 588.254 260.376 588.254 259.205V255.873C588.254 254.861 587.702 253.931 586.814 253.446C585.664 252.819 584.231 253.085 583.384 254.084ZM582.666 288.255V290.582C582.666 295.026 586.269 298.628 590.713 298.628C591.62 298.628 592.521 298.475 593.377 298.174L594.68 297.717C596.808 296.971 599.135 297.029 601.222 297.881C602.429 298.373 603.518 299.116 604.417 300.06L608.116 303.944C608.869 304.735 609.8 305.335 610.832 305.695C613.898 306.763 617.295 305.54 618.975 302.761L620.412 300.385C621.113 299.225 621.578 297.939 621.781 296.599L622.655 290.829C622.896 289.244 622.601 287.623 621.819 286.223L615.846 275.539C615.035 274.088 612.884 274.303 612.377 275.886C612.124 276.673 611.393 277.206 610.566 277.206H610.056C609.011 277.206 608.067 276.58 607.66 275.617L607.306 274.778C606.37 272.559 603.692 271.676 601.62 272.904L595.599 276.472C594.777 276.959 593.891 277.327 592.965 277.564L590.461 278.207C585.874 279.384 582.666 283.519 582.666 288.255ZM569.212 257.516L572.432 262.586C572.812 263.184 573.471 263.546 574.179 263.546C575.323 263.546 576.25 262.619 576.25 261.476V261.291C576.25 260.743 576.051 260.215 575.69 259.803L571.91 255.494C571.415 254.93 570.608 254.76 569.927 255.076C569.001 255.506 568.664 256.654 569.212 257.516ZM511.516 279.857L514.796 274.826C515.354 273.97 516.538 273.801 517.313 274.466C517.883 274.955 518.063 275.76 517.754 276.444L515.399 281.67C515.174 282.168 514.775 282.569 514.277 282.795L514.109 282.872C513.068 283.346 511.84 282.886 511.366 281.846C511.073 281.201 511.129 280.451 511.516 279.857ZM611.367 266.078L611.786 266.462C612.426 267.049 613.262 267.375 614.131 267.375H616.12C616.988 267.375 617.845 267.567 618.629 267.938L621.786 269.431C622.561 269.797 623.487 269.549 623.975 268.844C624.534 268.038 624.321 266.93 623.503 266.387L615.356 260.982C614.824 260.63 614.2 260.441 613.562 260.441C610.603 260.441 609.187 264.077 611.367 266.078ZM635.235 317.099L630.464 321.136C629.919 321.597 629.741 322.361 630.025 323.016C630.345 323.75 631.153 324.141 631.926 323.934L633.403 323.54C634.543 323.236 635.443 322.363 635.781 321.232L636.724 318.074C636.989 317.189 635.94 316.503 635.235 317.099ZM639.19 311.838L641.007 305.858C641.275 304.975 642.529 304.982 642.787 305.869L643.708 309.033C644.038 310.166 643.756 311.388 642.964 312.262L641.937 313.395C641.399 313.988 640.509 314.098 639.842 313.655C639.248 313.259 638.983 312.521 639.19 311.838Z" fill="#A7CF75"/>
</g>
<g opacity="0.6" filter="url(#filter3_f_15_9725)">
<path d="M273.584 116.202L272.687 117.38C270.52 120.222 266.804 121.4 263.397 120.325C262.572 120.065 261.712 119.932 260.847 119.932H253.443C251.157 119.932 249.008 121.027 247.664 122.877C245.342 126.074 246.056 130.549 249.258 132.864L253.153 135.679C255.736 137.547 258.958 138.303 262.102 137.782L268.669 136.691C269.784 136.506 270.876 136.204 271.927 135.789C277.722 133.504 284.316 134.779 288.842 139.059L294.902 144.789C295.994 145.822 297.177 146.752 298.439 147.568C309.417 154.677 324.036 151.967 331.737 141.397L335.368 136.413C337.391 133.637 338.116 130.123 337.359 126.773L336.083 121.125C335.236 117.38 331.374 115.156 327.71 116.302C326.357 116.725 325.176 117.575 324.346 118.725L323.969 119.247C321.795 122.255 317.921 123.508 314.397 122.341L289.734 114.174L285.63 112.676C281.276 111.087 276.394 112.516 273.584 116.202Z" fill="white"/>
<path d="M194.405 221.046L193.508 222.224C191.341 225.066 187.625 226.244 184.217 225.169L184.059 225.119C183.339 224.892 182.589 224.776 181.833 224.776H179.451C175.271 224.776 172.45 229.048 174.093 232.893C176.368 239.017 182.666 242.668 189.111 241.598L189.67 241.505C190.665 241.34 191.64 241.07 192.578 240.7L192.748 240.633C198.543 238.348 205.137 239.623 209.663 243.903L215.723 249.633C216.815 250.665 217.998 251.596 219.259 252.412C230.237 259.521 244.857 256.811 252.558 246.24L254.184 244.009C257.481 239.484 258.664 233.756 257.429 228.295C256.107 222.443 252.152 217.53 246.716 214.989L246.416 214.848C241.603 211.826 235.706 211.071 230.287 212.783L214.22 217.86C211.844 218.611 209.285 218.554 206.944 217.7L206.45 217.52C202.096 215.931 197.215 217.36 194.405 221.046Z" fill="white"/>
<path d="M383.785 291.845L344.25 301.489C341.275 302.215 338.159 302.112 335.239 301.191L333.865 300.757C333.145 300.53 332.394 300.415 331.639 300.415H329.257C325.076 300.415 322.256 304.687 323.899 308.531C326.173 314.655 332.471 318.306 338.916 317.236L340.972 316.895L375.261 313.987C386.21 313.058 397.036 316.844 405.02 324.394L405.948 325.272C407.04 326.304 408.224 327.234 409.485 328.051C420.463 335.159 435.082 332.449 442.783 321.879L444.409 319.647C447.706 315.122 448.889 309.395 447.655 303.934C446.332 298.081 442.377 293.169 436.942 290.627L436.641 290.486C431.829 287.465 425.931 286.709 420.513 288.422L406.911 292.719C402.936 293.975 398.657 293.881 394.741 292.452C391.229 291.17 387.417 290.959 383.785 291.845Z" fill="white"/>
<path d="M141.411 155.941L142.309 157.119C144.475 159.961 148.191 161.139 151.599 160.064L151.757 160.014C152.477 159.787 153.228 159.671 153.983 159.671H156.365C160.546 159.671 163.366 163.944 161.723 167.788C159.449 173.912 153.151 177.563 146.706 176.493L146.146 176.4C145.151 176.235 144.177 175.965 143.238 175.595L143.068 175.528C137.273 173.243 130.679 174.518 126.153 178.798L120.093 184.528C119.002 185.561 117.818 186.491 116.557 187.307C105.579 194.416 90.9595 191.706 83.2582 181.136L81.6322 178.904C78.3356 174.379 77.1526 168.651 78.3869 163.191C79.7098 157.338 83.6645 152.426 89.1 149.884L89.4005 149.743C94.213 146.721 100.11 145.966 105.529 147.678L121.596 152.755C123.973 153.506 126.531 153.45 128.872 152.595L129.366 152.415C133.72 150.826 138.601 152.255 141.411 155.941Z" fill="white"/>
</g>
<g opacity="0.4" filter="url(#filter4_f_15_9725)">
<path d="M206.115 68.5663C115.762 165.281 171.325 323.67 302.296 342.746L344.288 348.862L-27.8145 308.15L206.115 68.5663Z" fill="#1E819A"/>
</g>
<g opacity="0.3" filter="url(#filter5_f_15_9725)">
<path d="M236.515 366.822C332.672 275.876 287.004 114.355 157.462 87.2229L115.928 78.5235L484.803 142.153L236.515 366.822Z" fill="white"/>
</g>
</g>
</g>
<defs>
<filter id="filter0_d_15_9725" x="80.8133" y="79.7272" width="276.679" height="276.679" filterUnits="userSpaceOnUse" color-interpolation-filters="sRGB">
<feFlood flood-opacity="0" result="BackgroundImageFix"/>
<feColorMatrix in="SourceAlpha" type="matrix" values="0 0 0 0 0 0 0 0 0 0 0 0 0 0 0 0 0 0 127 0" result="hardAlpha"/>
<feOffset/>
<feGaussianBlur stdDeviation="14.562"/>
<feComposite in2="hardAlpha" operator="out"/>
<feColorMatrix type="matrix" values="0 0 0 0 0 0 0 0 0 0.458156 0 0 0 0 0.566667 0 0 0 0.6 0"/>
<feBlend mode="normal" in2="BackgroundImageFix" result="effect1_dropShadow_15_9725"/>
<feBlend mode="normal" in="SourceGraphic" in2="effect1_dropShadow_15_9725" result="shape"/>
</filter>
<filter id="filter1_d_15_9725" x="-29.4713" y="109.787" width="365.669" height="241.809" filterUnits="userSpaceOnUse" color-interpolation-filters="sRGB">
<feFlood flood-opacity="0" result="BackgroundImageFix"/>
<feColorMatrix in="SourceAlpha" type="matrix" values="0 0 0 0 0 0 0 0 0 0 0 0 0 0 0 0 0 0 127 0" result="hardAlpha"/>
<feOffset dy="4"/>
<feGaussianBlur stdDeviation="10"/>
<feComposite in2="hardAlpha" operator="out"/>
<feColorMatrix type="matrix" values="0 0 0 0 0.160417 0 0 0 0 0.619952 0 0 0 0 0.7 0 0 0 1 0"/>
<feBlend mode="normal" in2="BackgroundImageFix" result="effect1_dropShadow_15_9725"/>
<feBlend mode="normal" in="SourceGraphic" in2="effect1_dropShadow_15_9725" result="shape"/>
</filter>
<filter id="filter2_d_15_9725" x="298.174" y="109.787" width="365.669" height="241.809" filterUnits="userSpaceOnUse" color-interpolation-filters="sRGB">
<feFlood flood-opacity="0" result="BackgroundImageFix"/>
<feColorMatrix in="SourceAlpha" type="matrix" values="0 0 0 0 0 0 0 0 0 0 0 0 0 0 0 0 0 0 127 0" result="hardAlpha"/>
<feOffset dy="4"/>
<feGaussianBlur stdDeviation="10"/>
<feComposite in2="hardAlpha" operator="out"/>
<feColorMatrix type="matrix" values="0 0 0 0 0.160417 0 0 0 0 0.619952 0 0 0 0 0.7 0 0 0 1 0"/>
<feBlend mode="normal" in2="BackgroundImageFix" result="effect1_dropShadow_15_9725"/>
<feBlend mode="normal" in="SourceGraphic" in2="effect1_dropShadow_15_9725" result="shape"/>
</filter>
<filter id="filter3_f_15_9725" x="-446.688" y="104.753" width="902.102" height="234.537" filterUnits="userSpaceOnUse" color-interpolation-filters="sRGB">
<feFlood flood-opacity="0" result="BackgroundImageFix"/>
<feBlend mode="normal" in="SourceGraphic" in2="BackgroundImageFix" result="shape"/>
<feGaussianBlur stdDeviation="3.64051" result="effect1_foregroundBlur_15_9725"/>
</filter>
<filter id="filter4_f_15_9725" x="-42.3765" y="54.0042" width="401.227" height="309.419" filterUnits="userSpaceOnUse" color-interpolation-filters="sRGB">
<feFlood flood-opacity="0" result="BackgroundImageFix"/>
<feBlend mode="normal" in="SourceGraphic" in2="BackgroundImageFix" result="shape"/>
<feGaussianBlur stdDeviation="7.28102" result="effect1_foregroundBlur_15_9725"/>
</filter>
<filter id="filter5_f_15_9725" x="86.8038" y="49.3995" width="427.124" height="346.547" filterUnits="userSpaceOnUse" color-interpolation-filters="sRGB">
<feFlood flood-opacity="0" result="BackgroundImageFix"/>
<feBlend mode="normal" in="SourceGraphic" in2="BackgroundImageFix" result="shape"/>
<feGaussianBlur stdDeviation="14.562" result="effect1_foregroundBlur_15_9725"/>
</filter>
<linearGradient id="paint0_linear_15_9725" x1="165.979" y1="222.357" x2="351.828" y2="206.567" gradientUnits="userSpaceOnUse">
<stop stop-color="#228EA9"/>
<stop offset="1" stop-color="#02DEFE"/>
</linearGradient>
<clipPath id="clip0_15_9725">
<rect x="109.937" y="108.851" width="218.431" height="218.431" rx="109.215" fill="white"/>
</clipPath>
</defs>
</svg>
