<svg width="438" height="437" viewBox="0 0 438 437" fill="none" xmlns="http://www.w3.org/2000/svg">
<g filter="url(#filter0_d_15_9726)">
<g clip-path="url(#clip0_15_9726)">
<rect x="100.695" y="119.15" width="218.431" height="218.431" rx="109.215" transform="rotate(-5 100.695 119.15)" fill="url(#paint0_linear_15_9726)"/>
<g filter="url(#filter1_i_15_9726)">
<path d="M209.675 162.26C204.137 165.649 199.16 163.451 195.681 157.768C192.202 152.085 193.871 144.73 199.408 141.34C204.946 137.95 211.566 139.869 215.044 145.552C218.523 151.235 215.212 158.87 209.675 162.26Z" fill="#E31949"/>
</g>
<g filter="url(#filter2_i_15_9726)">
<path d="M209.422 157.699C205.925 159.84 200.299 159.387 198.158 155.889C196.017 152.392 197.951 146.222 201.449 144.081C204.946 141.94 209.737 143.993 211.878 147.49C214.019 150.988 212.919 155.558 209.422 157.699Z" fill="#C60C38"/>
</g>
<g filter="url(#filter3_i_15_9726)">
<path d="M238.364 316.538C233.265 319.658 223.871 315.14 220.75 310.041C217.63 304.943 220.449 295.949 225.548 292.828C230.646 289.707 237.631 292.699 240.752 297.798C243.873 302.896 243.462 313.417 238.364 316.538Z" fill="#BA1F44"/>
</g>
<g filter="url(#filter4_i_15_9726)">
<path d="M121.923 357.687C128.612 360.319 138.794 353.006 141.425 346.316C144.056 339.627 138.839 329.564 132.149 326.933C125.46 324.301 117.813 329.304 115.181 335.993C112.55 342.683 115.233 355.056 121.923 357.687Z" fill="#E31949"/>
</g>
<g filter="url(#filter5_i_15_9726)">
<path d="M278.092 190.933C270.487 199.463 264.648 194.997 255.893 187.192C247.137 179.387 242.537 169.44 250.142 160.91C257.747 152.379 269.879 152.241 278.634 160.046C287.389 167.851 285.697 182.402 278.092 190.933Z" fill="#E31949"/>
</g>
<g filter="url(#filter6_i_15_9726)">
<path d="M275.344 183.377C270.541 188.765 264.091 187.206 258.703 182.403C253.315 177.6 250.173 169.877 254.976 164.489C259.779 159.101 268.897 160.121 274.285 164.924C279.673 169.727 280.147 177.989 275.344 183.377Z" fill="#C60C38"/>
</g>
<g filter="url(#filter7_i_15_9726)">
<path d="M296.788 327.232C285.605 328.967 283.952 321.878 282.172 310.401C280.391 298.923 283.135 288.424 294.318 286.689C305.501 284.953 314.862 292.484 316.643 303.961C318.423 315.439 307.971 325.497 296.788 327.232Z" fill="#E31949"/>
</g>
<g filter="url(#filter8_i_15_9726)">
<path d="M299.443 319.726C292.38 320.822 288.43 315.571 287.335 308.508C286.239 301.445 288.697 293.563 295.76 292.467C302.823 291.371 309.152 297.89 310.248 304.953C311.344 312.016 306.506 318.63 299.443 319.726Z" fill="#C60C38"/>
</g>
<g filter="url(#filter9_i_15_9726)">
<path d="M159.63 287.614C157.318 290.207 154.213 289.457 151.62 287.145C149.027 284.833 147.514 281.116 149.826 278.523C152.138 275.93 156.527 276.421 159.12 278.733C161.713 281.044 161.941 285.021 159.63 287.614Z" fill="#BA1F44"/>
</g>
<g filter="url(#filter10_i_15_9726)">
<path d="M322.167 227.668C316.876 230.473 312.308 227.399 309.504 222.107C306.699 216.816 306.484 209.901 311.775 207.097C317.067 204.292 323.865 207.717 326.67 213.009C329.475 218.3 327.459 224.864 322.167 227.668Z" fill="#E31949"/>
</g>
<g opacity="0.5" filter="url(#filter11_i_15_9726)">
<path d="M151.883 203.49C146.273 212.072 149.51 220.032 158.317 225.79C167.125 231.548 178.813 229.259 184.424 220.677C190.034 212.095 187.316 201.555 178.508 195.797C169.701 190.039 157.494 194.908 151.883 203.49Z" fill="#E31949"/>
</g>
<g filter="url(#filter12_i_15_9726)">
<path d="M159.071 204.102C155.527 209.522 155.979 218.425 161.4 221.968C166.82 225.511 176.65 222.747 180.193 217.327C183.736 211.907 180.721 204.247 175.301 200.704C169.88 197.161 162.614 198.682 159.071 204.102Z" fill="#C60C38"/>
</g>
<g filter="url(#filter13_i_15_9726)">
<path d="M162.554 166.166C161.512 167.76 161.645 170.378 163.239 171.42C164.834 172.462 167.725 171.649 168.767 170.055C169.809 168.461 168.922 166.208 167.328 165.166C165.734 164.124 163.597 164.571 162.554 166.166Z" fill="#E31949"/>
</g>
<g filter="url(#filter14_i_15_9726)">
<path d="M115.544 130.08C114.502 131.674 114.635 134.292 116.229 135.335C117.823 136.377 120.715 135.564 121.757 133.97C122.799 132.375 121.912 130.123 120.318 129.08C118.724 128.038 116.586 128.486 115.544 130.08Z" fill="#E31949"/>
</g>
<g filter="url(#filter15_i_15_9726)">
<path d="M316.303 319.787C315.261 321.381 315.394 323.999 316.988 325.042C318.583 326.084 321.474 325.271 322.516 323.677C323.558 322.082 322.671 319.83 321.077 318.787C319.483 317.745 317.346 318.193 316.303 319.787Z" fill="#C60C38"/>
</g>
<g filter="url(#filter16_i_15_9726)">
<path d="M319.749 275.633C318.707 277.227 318.84 279.845 320.434 280.887C322.028 281.929 324.92 281.116 325.962 279.522C327.004 277.928 326.117 275.675 324.523 274.633C322.929 273.591 320.791 274.038 319.749 275.633Z" fill="#C60C38"/>
</g>
<g filter="url(#filter17_i_15_9726)">
<path d="M171.726 332.57C170.684 334.164 170.817 336.782 172.411 337.824C174.005 338.867 176.896 338.054 177.938 336.459C178.981 334.865 178.094 332.612 176.5 331.57C174.905 330.528 172.768 330.976 171.726 332.57Z" fill="#BA1F44"/>
</g>
<g opacity="0.8">
<g filter="url(#filter18_i_15_9726)">
<path d="M141.618 160.361C135.603 158.687 127.555 161.702 125.881 167.718C124.208 173.733 129.618 181.959 135.634 183.632C141.649 185.305 147.807 180.298 149.48 174.282C151.154 168.267 147.634 162.034 141.618 160.361Z" fill="#E31949"/>
</g>
<g filter="url(#filter19_i_15_9726)">
<path d="M137.334 163.701C133.98 162.769 129.494 164.449 128.561 167.802C127.628 171.156 130.644 175.741 133.998 176.674C137.351 177.606 140.783 174.815 141.716 171.462C142.649 168.109 140.687 164.634 137.334 163.701Z" fill="#C60C38"/>
</g>
</g>
<g filter="url(#filter20_i_15_9726)">
<path d="M76.9045 229.05C78.8054 239.909 87.1947 243.78 98.3394 241.829C109.484 239.878 116.978 229.494 115.077 218.635C113.176 207.776 103.299 201.499 92.154 203.45C81.0093 205.401 75.0035 218.191 76.9045 229.05Z" fill="#E31949"/>
</g>
<g filter="url(#filter21_i_15_9726)">
<path d="M82.9965 224.251C84.1971 231.109 91.0925 237.765 97.9507 236.564C104.809 235.364 110.495 225.972 109.294 219.114C108.094 212.255 100.099 208.458 93.2406 209.659C86.3823 210.859 81.7959 217.392 82.9965 224.251Z" fill="#C60C38"/>
</g>
<g filter="url(#filter22_i_15_9726)">
<path d="M245.468 109.798C239.446 119.009 242.92 127.553 252.374 133.734C261.828 139.914 274.374 137.457 280.396 128.245C286.417 119.034 283.5 107.721 274.046 101.541C264.592 95.3604 251.49 100.586 245.468 109.798Z" fill="#E31949"/>
</g>
<g filter="url(#filter23_i_15_9726)">
<path d="M253.183 110.455C249.379 116.273 249.865 125.828 255.682 129.631C261.5 133.435 272.051 130.468 275.854 124.65C279.658 118.832 276.421 110.611 270.603 106.808C264.785 103.004 256.986 104.637 253.183 110.455Z" fill="#C60C38"/>
</g>
<circle cx="200.805" cy="269.305" r="2.63717" transform="rotate(-5 200.805 269.305)" fill="#C60C38"/>
<circle cx="169.754" cy="271.572" r="2.63717" transform="rotate(-5 169.754 271.572)" fill="#BA1F44"/>
<circle cx="187.43" cy="176.939" r="2.63717" transform="rotate(-5 187.43 176.939)" fill="#E31949"/>
<circle cx="195.65" cy="311.239" r="2.63717" transform="rotate(-5 195.65 311.239)" fill="#BA1F44"/>
<circle cx="271.54" cy="321.356" r="2.63717" transform="rotate(-5 271.54 321.356)" fill="#BA1F44"/>
<circle cx="245.17" cy="272.1" r="2.63717" transform="rotate(-5 245.17 272.1)" fill="#E31949"/>
<circle cx="222.101" cy="158.281" r="2.63717" transform="rotate(-5 222.101 158.281)" fill="#E31949"/>
<circle cx="198.551" cy="183.026" r="2.63717" transform="rotate(-5 198.551 183.026)" fill="#E31949"/>
<circle cx="142.976" cy="213.478" r="2.63717" transform="rotate(-5 142.976 213.478)" fill="#BA1F44"/>
<circle cx="300.124" cy="129.493" r="2.63717" transform="rotate(-5 300.124 129.493)" fill="#BA1F44"/>
<path d="M-396.485 317.594L-322.476 287.061C-302.006 278.616 -279.431 276.682 -257.823 281.522L-213.963 291.347C-192.481 296.159 -170.041 294.277 -149.662 285.953L-105.257 267.816C-84.9999 259.542 -62.7045 257.631 -41.3354 262.337L4.03589 272.329C25.6614 277.091 48.2291 275.076 68.6685 266.557L111.084 248.878C131.645 240.308 154.358 238.321 176.096 243.19L220.728 253.188C242.465 258.058 265.178 256.071 285.74 247.5L327.958 229.904C348.519 221.334 371.232 219.347 392.97 224.216L471.011 241.698" stroke="#A60823" stroke-width="5.82481"/>
<path d="M-412.714 340.941L-338.706 310.407C-318.236 301.962 -295.661 300.028 -274.053 304.869L-230.193 314.694C-208.711 319.506 -186.271 317.623 -165.891 309.299L-121.486 291.162C-101.23 282.889 -78.9341 280.978 -57.565 285.684L-12.1937 295.675C9.43187 300.438 31.9995 298.422 52.4389 289.903L94.854 272.225C115.416 263.654 138.129 261.667 159.866 266.537L204.498 276.535C226.236 281.404 248.949 279.417 269.511 270.847L311.728 253.251C332.29 244.68 355.003 242.693 376.74 247.563L454.782 265.045" stroke="#A60823" stroke-width="5.82481"/>
<path d="M-429.896 353.407L-355.887 322.874C-335.417 314.429 -312.842 312.495 -291.234 317.335L-247.374 327.16C-225.892 331.972 -203.452 330.09 -183.073 321.766L-138.668 303.629C-118.411 295.355 -96.1155 293.444 -74.7464 298.15L-29.3751 308.142C-7.74953 312.904 14.8181 310.889 35.2575 302.37L77.6726 284.691C98.2345 276.121 120.947 274.134 142.685 279.003L187.317 289.001C209.054 293.871 231.767 291.883 252.329 283.313L294.547 265.717C315.109 257.147 337.821 255.16 359.559 260.029L437.6 277.511" stroke="#A60823" stroke-width="8.73722"/>
<path d="M-406.73 325.8L-332.722 295.266C-312.252 286.821 -289.677 284.887 -268.069 289.727L-224.208 299.553C-202.727 304.365 -180.287 302.482 -159.907 294.158L-115.502 276.021C-95.2454 267.748 -72.9499 265.837 -51.5808 270.542L-6.20953 280.534C15.416 285.297 37.9837 283.281 58.423 274.762L100.838 257.083C121.4 248.513 144.113 246.526 165.851 251.395L210.482 261.393C232.22 266.263 254.933 264.276 275.495 255.706L317.712 238.109C338.274 229.539 360.987 227.552 382.725 232.421L460.766 249.904" stroke="#A60823" stroke-width="2.91241"/>
<path d="M-391.589 331.784L-317.58 301.25C-297.11 292.805 -274.536 290.871 -252.928 295.712L-209.067 305.537C-187.586 310.349 -165.146 308.466 -144.766 300.142L-100.361 282.005C-80.1042 273.732 -57.8088 271.821 -36.4397 276.527L8.93164 286.518C30.5572 291.281 53.1248 289.265 73.5642 280.746L115.979 263.067C136.541 254.497 159.254 252.51 180.992 257.38L225.623 267.378C247.361 272.247 270.074 270.26 290.636 261.69L332.853 244.093C353.415 235.523 376.128 233.536 397.866 238.406L475.907 255.888" stroke="#A60823" stroke-width="2.91241"/>
<g opacity="0.3" filter="url(#filter24_f_15_9726)">
<path d="M179.509 74.8887C109.27 187.066 194.034 331.944 326.239 325.678L368.626 323.67L-4.40801 354.706L179.509 74.8887Z" fill="#86041B"/>
</g>
<g opacity="0.3" filter="url(#filter25_f_15_9726)">
<path d="M210.502 373.969C308.428 284.931 265.943 122.544 136.959 92.8706L95.6043 83.3567L463.158 154.224L210.502 373.969Z" fill="#FF698D"/>
</g>
</g>
</g>
<defs>
<filter id="filter0_d_15_9726" x="18.7839" y="21.113" width="400.46" height="400.46" filterUnits="userSpaceOnUse" color-interpolation-filters="sRGB">
<feFlood flood-opacity="0" result="BackgroundImageFix"/>
<feColorMatrix in="SourceAlpha" type="matrix" values="0 0 0 0 0 0 0 0 0 0 0 0 0 0 0 0 0 0 127 0" result="hardAlpha"/>
<feMorphology radius="9.10127" operator="dilate" in="SourceAlpha" result="effect1_dropShadow_15_9726"/>
<feOffset dy="2.91241"/>
<feGaussianBlur stdDeviation="36.4051"/>
<feComposite in2="hardAlpha" operator="out"/>
<feColorMatrix type="matrix" values="0 0 0 0 0.9125 0 0 0 0 0.0114062 0 0 0 0 0.221506 0 0 0 0.4 0"/>
<feBlend mode="normal" in2="BackgroundImageFix" result="effect1_dropShadow_15_9726"/>
<feBlend mode="normal" in="SourceGraphic" in2="effect1_dropShadow_15_9726" result="shape"/>
</filter>
<filter id="filter1_i_15_9726" x="193.865" y="139.662" width="22.6055" height="27.8679" filterUnits="userSpaceOnUse" color-interpolation-filters="sRGB">
<feFlood flood-opacity="0" result="BackgroundImageFix"/>
<feBlend mode="normal" in="SourceGraphic" in2="BackgroundImageFix" result="shape"/>
<feColorMatrix in="SourceAlpha" type="matrix" values="0 0 0 0 0 0 0 0 0 0 0 0 0 0 0 0 0 0 127 0" result="hardAlpha"/>
<feOffset dy="3.66408"/>
<feGaussianBlur stdDeviation="3.66408"/>
<feComposite in2="hardAlpha" operator="arithmetic" k2="-1" k3="1"/>
<feColorMatrix type="matrix" values="0 0 0 0 0.541667 0 0 0 0 0.040625 0 0 0 0 0.142143 0 0 0 1 0"/>
<feBlend mode="normal" in2="shape" result="effect1_innerShadow_15_9726"/>
</filter>
<filter id="filter2_i_15_9726" x="197.262" y="143.209" width="15.7094" height="19.4495" filterUnits="userSpaceOnUse" color-interpolation-filters="sRGB">
<feFlood flood-opacity="0" result="BackgroundImageFix"/>
<feBlend mode="normal" in="SourceGraphic" in2="BackgroundImageFix" result="shape"/>
<feColorMatrix in="SourceAlpha" type="matrix" values="0 0 0 0 0 0 0 0 0 0 0 0 0 0 0 0 0 0 127 0" result="hardAlpha"/>
<feOffset dy="3.66408"/>
<feGaussianBlur stdDeviation="3.66408"/>
<feComposite in2="hardAlpha" operator="arithmetic" k2="-1" k3="1"/>
<feColorMatrix type="matrix" values="0 0 0 0 0.541667 0 0 0 0 0.040625 0 0 0 0 0.142143 0 0 0 1 0"/>
<feBlend mode="normal" in2="shape" result="effect1_innerShadow_15_9726"/>
</filter>
<filter id="filter3_i_15_9726" x="219.445" y="291.556" width="23.2855" height="29.6726" filterUnits="userSpaceOnUse" color-interpolation-filters="sRGB">
<feFlood flood-opacity="0" result="BackgroundImageFix"/>
<feBlend mode="normal" in="SourceGraphic" in2="BackgroundImageFix" result="shape"/>
<feColorMatrix in="SourceAlpha" type="matrix" values="0 0 0 0 0 0 0 0 0 0 0 0 0 0 0 0 0 0 127 0" result="hardAlpha"/>
<feOffset dy="3.66408"/>
<feGaussianBlur stdDeviation="3.66408"/>
<feComposite in2="hardAlpha" operator="arithmetic" k2="-1" k3="1"/>
<feColorMatrix type="matrix" values="0 0 0 0 0.541667 0 0 0 0 0.040625 0 0 0 0 0.142143 0 0 0 1 0"/>
<feBlend mode="normal" in2="shape" result="effect1_innerShadow_15_9726"/>
</filter>
<filter id="filter4_i_15_9726" x="114.184" y="326.218" width="27.9367" height="35.6827" filterUnits="userSpaceOnUse" color-interpolation-filters="sRGB">
<feFlood flood-opacity="0" result="BackgroundImageFix"/>
<feBlend mode="normal" in="SourceGraphic" in2="BackgroundImageFix" result="shape"/>
<feColorMatrix in="SourceAlpha" type="matrix" values="0 0 0 0 0 0 0 0 0 0 0 0 0 0 0 0 0 0 127 0" result="hardAlpha"/>
<feOffset dy="3.66408"/>
<feGaussianBlur stdDeviation="3.66408"/>
<feComposite in2="hardAlpha" operator="arithmetic" k2="-1" k3="1"/>
<feColorMatrix type="matrix" values="0 0 0 0 0.541667 0 0 0 0 0.040625 0 0 0 0 0.142143 0 0 0 1 0"/>
<feBlend mode="normal" in2="shape" result="effect1_innerShadow_15_9726"/>
</filter>
<filter id="filter5_i_15_9726" x="246.297" y="154.346" width="38.2292" height="44.8756" filterUnits="userSpaceOnUse" color-interpolation-filters="sRGB">
<feFlood flood-opacity="0" result="BackgroundImageFix"/>
<feBlend mode="normal" in="SourceGraphic" in2="BackgroundImageFix" result="shape"/>
<feColorMatrix in="SourceAlpha" type="matrix" values="0 0 0 0 0 0 0 0 0 0 0 0 0 0 0 0 0 0 127 0" result="hardAlpha"/>
<feOffset dy="3.66408"/>
<feGaussianBlur stdDeviation="3.66408"/>
<feComposite in2="hardAlpha" operator="arithmetic" k2="-1" k3="1"/>
<feColorMatrix type="matrix" values="0 0 0 0 0.541667 0 0 0 0 0.040625 0 0 0 0 0.142143 0 0 0 1 0"/>
<feBlend mode="normal" in2="shape" result="effect1_innerShadow_15_9726"/>
</filter>
<filter id="filter6_i_15_9726" x="252.608" y="160.866" width="26.0501" height="29.5679" filterUnits="userSpaceOnUse" color-interpolation-filters="sRGB">
<feFlood flood-opacity="0" result="BackgroundImageFix"/>
<feBlend mode="normal" in="SourceGraphic" in2="BackgroundImageFix" result="shape"/>
<feColorMatrix in="SourceAlpha" type="matrix" values="0 0 0 0 0 0 0 0 0 0 0 0 0 0 0 0 0 0 127 0" result="hardAlpha"/>
<feOffset dy="3.66408"/>
<feGaussianBlur stdDeviation="3.66408"/>
<feComposite in2="hardAlpha" operator="arithmetic" k2="-1" k3="1"/>
<feColorMatrix type="matrix" values="0 0 0 0 0.541667 0 0 0 0 0.040625 0 0 0 0 0.142143 0 0 0 1 0"/>
<feBlend mode="normal" in2="shape" result="effect1_innerShadow_15_9726"/>
</filter>
<filter id="filter7_i_15_9726" x="281.672" y="286.44" width="35.1692" height="44.7163" filterUnits="userSpaceOnUse" color-interpolation-filters="sRGB">
<feFlood flood-opacity="0" result="BackgroundImageFix"/>
<feBlend mode="normal" in="SourceGraphic" in2="BackgroundImageFix" result="shape"/>
<feColorMatrix in="SourceAlpha" type="matrix" values="0 0 0 0 0 0 0 0 0 0 0 0 0 0 0 0 0 0 127 0" result="hardAlpha"/>
<feOffset dy="3.66408"/>
<feGaussianBlur stdDeviation="3.66408"/>
<feComposite in2="hardAlpha" operator="arithmetic" k2="-1" k3="1"/>
<feColorMatrix type="matrix" values="0 0 0 0 0.541667 0 0 0 0 0.040625 0 0 0 0 0.142143 0 0 0 1 0"/>
<feBlend mode="normal" in2="shape" result="effect1_innerShadow_15_9726"/>
</filter>
<filter id="filter8_i_15_9726" x="287.085" y="292.346" width="23.3178" height="31.189" filterUnits="userSpaceOnUse" color-interpolation-filters="sRGB">
<feFlood flood-opacity="0" result="BackgroundImageFix"/>
<feBlend mode="normal" in="SourceGraphic" in2="BackgroundImageFix" result="shape"/>
<feColorMatrix in="SourceAlpha" type="matrix" values="0 0 0 0 0 0 0 0 0 0 0 0 0 0 0 0 0 0 127 0" result="hardAlpha"/>
<feOffset dy="3.66408"/>
<feGaussianBlur stdDeviation="3.66408"/>
<feComposite in2="hardAlpha" operator="arithmetic" k2="-1" k3="1"/>
<feColorMatrix type="matrix" values="0 0 0 0 0.541667 0 0 0 0 0.040625 0 0 0 0 0.142143 0 0 0 1 0"/>
<feBlend mode="normal" in2="shape" result="effect1_innerShadow_15_9726"/>
</filter>
<filter id="filter9_i_15_9726" x="148.686" y="276.779" width="12.5383" height="16.1319" filterUnits="userSpaceOnUse" color-interpolation-filters="sRGB">
<feFlood flood-opacity="0" result="BackgroundImageFix"/>
<feBlend mode="normal" in="SourceGraphic" in2="BackgroundImageFix" result="shape"/>
<feColorMatrix in="SourceAlpha" type="matrix" values="0 0 0 0 0 0 0 0 0 0 0 0 0 0 0 0 0 0 127 0" result="hardAlpha"/>
<feOffset dy="3.66408"/>
<feGaussianBlur stdDeviation="3.66408"/>
<feComposite in2="hardAlpha" operator="arithmetic" k2="-1" k3="1"/>
<feColorMatrix type="matrix" values="0 0 0 0 0.541667 0 0 0 0 0.040625 0 0 0 0 0.142143 0 0 0 1 0"/>
<feBlend mode="normal" in2="shape" result="effect1_innerShadow_15_9726"/>
</filter>
<filter id="filter10_i_15_9726" x="307.554" y="206.093" width="20.3812" height="26.2993" filterUnits="userSpaceOnUse" color-interpolation-filters="sRGB">
<feFlood flood-opacity="0" result="BackgroundImageFix"/>
<feBlend mode="normal" in="SourceGraphic" in2="BackgroundImageFix" result="shape"/>
<feColorMatrix in="SourceAlpha" type="matrix" values="0 0 0 0 0 0 0 0 0 0 0 0 0 0 0 0 0 0 127 0" result="hardAlpha"/>
<feOffset dy="3.66408"/>
<feGaussianBlur stdDeviation="3.66408"/>
<feComposite in2="hardAlpha" operator="arithmetic" k2="-1" k3="1"/>
<feColorMatrix type="matrix" values="0 0 0 0 0.541667 0 0 0 0 0.040625 0 0 0 0 0.142143 0 0 0 1 0"/>
<feBlend mode="normal" in2="shape" result="effect1_innerShadow_15_9726"/>
</filter>
<filter id="filter11_i_15_9726" x="149.1" y="193.297" width="38.2503" height="39.3322" filterUnits="userSpaceOnUse" color-interpolation-filters="sRGB">
<feFlood flood-opacity="0" result="BackgroundImageFix"/>
<feBlend mode="normal" in="SourceGraphic" in2="BackgroundImageFix" result="shape"/>
<feColorMatrix in="SourceAlpha" type="matrix" values="0 0 0 0 0 0 0 0 0 0 0 0 0 0 0 0 0 0 127 0" result="hardAlpha"/>
<feOffset dy="3.66408"/>
<feGaussianBlur stdDeviation="3.66408"/>
<feComposite in2="hardAlpha" operator="arithmetic" k2="-1" k3="1"/>
<feColorMatrix type="matrix" values="0 0 0 0 0.541667 0 0 0 0 0.040625 0 0 0 0 0.142143 0 0 0 1 0"/>
<feBlend mode="normal" in2="shape" result="effect1_innerShadow_15_9726"/>
</filter>
<filter id="filter12_i_15_9726" x="156.792" y="198.792" width="24.9309" height="28.4262" filterUnits="userSpaceOnUse" color-interpolation-filters="sRGB">
<feFlood flood-opacity="0" result="BackgroundImageFix"/>
<feBlend mode="normal" in="SourceGraphic" in2="BackgroundImageFix" result="shape"/>
<feColorMatrix in="SourceAlpha" type="matrix" values="0 0 0 0 0 0 0 0 0 0 0 0 0 0 0 0 0 0 127 0" result="hardAlpha"/>
<feOffset dy="3.66408"/>
<feGaussianBlur stdDeviation="3.66408"/>
<feComposite in2="hardAlpha" operator="arithmetic" k2="-1" k3="1"/>
<feColorMatrix type="matrix" values="0 0 0 0 0.541667 0 0 0 0 0.040625 0 0 0 0 0.142143 0 0 0 1 0"/>
<feBlend mode="normal" in2="shape" result="effect1_innerShadow_15_9726"/>
</filter>
<filter id="filter13_i_15_9726" x="161.884" y="164.604" width="7.33264" height="10.9471" filterUnits="userSpaceOnUse" color-interpolation-filters="sRGB">
<feFlood flood-opacity="0" result="BackgroundImageFix"/>
<feBlend mode="normal" in="SourceGraphic" in2="BackgroundImageFix" result="shape"/>
<feColorMatrix in="SourceAlpha" type="matrix" values="0 0 0 0 0 0 0 0 0 0 0 0 0 0 0 0 0 0 127 0" result="hardAlpha"/>
<feOffset dy="3.66408"/>
<feGaussianBlur stdDeviation="3.66408"/>
<feComposite in2="hardAlpha" operator="arithmetic" k2="-1" k3="1"/>
<feColorMatrix type="matrix" values="0 0 0 0 0.541667 0 0 0 0 0.040625 0 0 0 0 0.142143 0 0 0 1 0"/>
<feBlend mode="normal" in2="shape" result="effect1_innerShadow_15_9726"/>
</filter>
<filter id="filter14_i_15_9726" x="114.874" y="128.518" width="7.33264" height="10.9471" filterUnits="userSpaceOnUse" color-interpolation-filters="sRGB">
<feFlood flood-opacity="0" result="BackgroundImageFix"/>
<feBlend mode="normal" in="SourceGraphic" in2="BackgroundImageFix" result="shape"/>
<feColorMatrix in="SourceAlpha" type="matrix" values="0 0 0 0 0 0 0 0 0 0 0 0 0 0 0 0 0 0 127 0" result="hardAlpha"/>
<feOffset dy="3.66408"/>
<feGaussianBlur stdDeviation="3.66408"/>
<feComposite in2="hardAlpha" operator="arithmetic" k2="-1" k3="1"/>
<feColorMatrix type="matrix" values="0 0 0 0 0.541667 0 0 0 0 0.040625 0 0 0 0 0.142143 0 0 0 1 0"/>
<feBlend mode="normal" in2="shape" result="effect1_innerShadow_15_9726"/>
</filter>
<filter id="filter15_i_15_9726" x="315.633" y="318.225" width="7.33264" height="10.9471" filterUnits="userSpaceOnUse" color-interpolation-filters="sRGB">
<feFlood flood-opacity="0" result="BackgroundImageFix"/>
<feBlend mode="normal" in="SourceGraphic" in2="BackgroundImageFix" result="shape"/>
<feColorMatrix in="SourceAlpha" type="matrix" values="0 0 0 0 0 0 0 0 0 0 0 0 0 0 0 0 0 0 127 0" result="hardAlpha"/>
<feOffset dy="3.66408"/>
<feGaussianBlur stdDeviation="3.66408"/>
<feComposite in2="hardAlpha" operator="arithmetic" k2="-1" k3="1"/>
<feColorMatrix type="matrix" values="0 0 0 0 0.541667 0 0 0 0 0.040625 0 0 0 0 0.142143 0 0 0 1 0"/>
<feBlend mode="normal" in2="shape" result="effect1_innerShadow_15_9726"/>
</filter>
<filter id="filter16_i_15_9726" x="319.079" y="274.071" width="7.33264" height="10.9471" filterUnits="userSpaceOnUse" color-interpolation-filters="sRGB">
<feFlood flood-opacity="0" result="BackgroundImageFix"/>
<feBlend mode="normal" in="SourceGraphic" in2="BackgroundImageFix" result="shape"/>
<feColorMatrix in="SourceAlpha" type="matrix" values="0 0 0 0 0 0 0 0 0 0 0 0 0 0 0 0 0 0 127 0" result="hardAlpha"/>
<feOffset dy="3.66408"/>
<feGaussianBlur stdDeviation="3.66408"/>
<feComposite in2="hardAlpha" operator="arithmetic" k2="-1" k3="1"/>
<feColorMatrix type="matrix" values="0 0 0 0 0.541667 0 0 0 0 0.040625 0 0 0 0 0.142143 0 0 0 1 0"/>
<feBlend mode="normal" in2="shape" result="effect1_innerShadow_15_9726"/>
</filter>
<filter id="filter17_i_15_9726" x="171.056" y="331.008" width="7.33264" height="10.9471" filterUnits="userSpaceOnUse" color-interpolation-filters="sRGB">
<feFlood flood-opacity="0" result="BackgroundImageFix"/>
<feBlend mode="normal" in="SourceGraphic" in2="BackgroundImageFix" result="shape"/>
<feColorMatrix in="SourceAlpha" type="matrix" values="0 0 0 0 0 0 0 0 0 0 0 0 0 0 0 0 0 0 127 0" result="hardAlpha"/>
<feOffset dy="3.66408"/>
<feGaussianBlur stdDeviation="3.66408"/>
<feComposite in2="hardAlpha" operator="arithmetic" k2="-1" k3="1"/>
<feColorMatrix type="matrix" values="0 0 0 0 0.541667 0 0 0 0 0.040625 0 0 0 0 0.142143 0 0 0 1 0"/>
<feBlend mode="normal" in2="shape" result="effect1_innerShadow_15_9726"/>
</filter>
<filter id="filter18_i_15_9726" x="125.573" y="159.903" width="24.3237" height="27.7201" filterUnits="userSpaceOnUse" color-interpolation-filters="sRGB">
<feFlood flood-opacity="0" result="BackgroundImageFix"/>
<feBlend mode="normal" in="SourceGraphic" in2="BackgroundImageFix" result="shape"/>
<feColorMatrix in="SourceAlpha" type="matrix" values="0 0 0 0 0 0 0 0 0 0 0 0 0 0 0 0 0 0 127 0" result="hardAlpha"/>
<feOffset dy="3.66408"/>
<feGaussianBlur stdDeviation="3.66408"/>
<feComposite in2="hardAlpha" operator="arithmetic" k2="-1" k3="1"/>
<feColorMatrix type="matrix" values="0 0 0 0 0.541667 0 0 0 0 0.040625 0 0 0 0 0.142143 0 0 0 1 0"/>
<feBlend mode="normal" in2="shape" result="effect1_innerShadow_15_9726"/>
</filter>
<filter id="filter19_i_15_9726" x="128.39" y="163.446" width="13.5587" height="17.0736" filterUnits="userSpaceOnUse" color-interpolation-filters="sRGB">
<feFlood flood-opacity="0" result="BackgroundImageFix"/>
<feBlend mode="normal" in="SourceGraphic" in2="BackgroundImageFix" result="shape"/>
<feColorMatrix in="SourceAlpha" type="matrix" values="0 0 0 0 0 0 0 0 0 0 0 0 0 0 0 0 0 0 127 0" result="hardAlpha"/>
<feOffset dy="3.66408"/>
<feGaussianBlur stdDeviation="3.66408"/>
<feComposite in2="hardAlpha" operator="arithmetic" k2="-1" k3="1"/>
<feColorMatrix type="matrix" values="0 0 0 0 0.541667 0 0 0 0 0.040625 0 0 0 0 0.142143 0 0 0 1 0"/>
<feBlend mode="normal" in2="shape" result="effect1_innerShadow_15_9726"/>
</filter>
<filter id="filter20_i_15_9726" x="76.5567" y="203.097" width="38.8147" height="42.8818" filterUnits="userSpaceOnUse" color-interpolation-filters="sRGB">
<feFlood flood-opacity="0" result="BackgroundImageFix"/>
<feBlend mode="normal" in="SourceGraphic" in2="BackgroundImageFix" result="shape"/>
<feColorMatrix in="SourceAlpha" type="matrix" values="0 0 0 0 0 0 0 0 0 0 0 0 0 0 0 0 0 0 127 0" result="hardAlpha"/>
<feOffset dy="3.66408"/>
<feGaussianBlur stdDeviation="3.66408"/>
<feComposite in2="hardAlpha" operator="arithmetic" k2="-1" k3="1"/>
<feColorMatrix type="matrix" values="0 0 0 0 0.541667 0 0 0 0 0.040625 0 0 0 0 0.142143 0 0 0 1 0"/>
<feBlend mode="normal" in2="shape" result="effect1_innerShadow_15_9726"/>
</filter>
<filter id="filter21_i_15_9726" x="82.8055" y="209.439" width="26.6496" height="30.9308" filterUnits="userSpaceOnUse" color-interpolation-filters="sRGB">
<feFlood flood-opacity="0" result="BackgroundImageFix"/>
<feBlend mode="normal" in="SourceGraphic" in2="BackgroundImageFix" result="shape"/>
<feColorMatrix in="SourceAlpha" type="matrix" values="0 0 0 0 0 0 0 0 0 0 0 0 0 0 0 0 0 0 127 0" result="hardAlpha"/>
<feOffset dy="3.66408"/>
<feGaussianBlur stdDeviation="3.66408"/>
<feComposite in2="hardAlpha" operator="arithmetic" k2="-1" k3="1"/>
<feColorMatrix type="matrix" values="0 0 0 0 0.541667 0 0 0 0 0.040625 0 0 0 0 0.142143 0 0 0 1 0"/>
<feBlend mode="normal" in2="shape" result="effect1_innerShadow_15_9726"/>
</filter>
<filter id="filter22_i_15_9726" x="242.481" y="98.8578" width="41.056" height="41.9485" filterUnits="userSpaceOnUse" color-interpolation-filters="sRGB">
<feFlood flood-opacity="0" result="BackgroundImageFix"/>
<feBlend mode="normal" in="SourceGraphic" in2="BackgroundImageFix" result="shape"/>
<feColorMatrix in="SourceAlpha" type="matrix" values="0 0 0 0 0 0 0 0 0 0 0 0 0 0 0 0 0 0 127 0" result="hardAlpha"/>
<feOffset dy="3.66408"/>
<feGaussianBlur stdDeviation="3.66408"/>
<feComposite in2="hardAlpha" operator="arithmetic" k2="-1" k3="1"/>
<feColorMatrix type="matrix" values="0 0 0 0 0.541667 0 0 0 0 0.040625 0 0 0 0 0.142143 0 0 0 1 0"/>
<feBlend mode="normal" in2="shape" result="effect1_innerShadow_15_9726"/>
</filter>
<filter id="filter23_i_15_9726" x="250.737" y="104.755" width="26.7597" height="30.2426" filterUnits="userSpaceOnUse" color-interpolation-filters="sRGB">
<feFlood flood-opacity="0" result="BackgroundImageFix"/>
<feBlend mode="normal" in="SourceGraphic" in2="BackgroundImageFix" result="shape"/>
<feColorMatrix in="SourceAlpha" type="matrix" values="0 0 0 0 0 0 0 0 0 0 0 0 0 0 0 0 0 0 127 0" result="hardAlpha"/>
<feOffset dy="3.66408"/>
<feGaussianBlur stdDeviation="3.66408"/>
<feComposite in2="hardAlpha" operator="arithmetic" k2="-1" k3="1"/>
<feColorMatrix type="matrix" values="0 0 0 0 0.541667 0 0 0 0 0.040625 0 0 0 0 0.142143 0 0 0 1 0"/>
<feBlend mode="normal" in2="shape" result="effect1_innerShadow_15_9726"/>
</filter>
<filter id="filter24_f_15_9726" x="-26.2511" y="53.0457" width="416.721" height="323.503" filterUnits="userSpaceOnUse" color-interpolation-filters="sRGB">
<feFlood flood-opacity="0" result="BackgroundImageFix"/>
<feBlend mode="normal" in="SourceGraphic" in2="BackgroundImageFix" result="shape"/>
<feGaussianBlur stdDeviation="10.9215" result="effect1_foregroundBlur_15_9726"/>
</filter>
<filter id="filter25_f_15_9726" x="62.8397" y="50.5921" width="433.083" height="356.142" filterUnits="userSpaceOnUse" color-interpolation-filters="sRGB">
<feFlood flood-opacity="0" result="BackgroundImageFix"/>
<feBlend mode="normal" in="SourceGraphic" in2="BackgroundImageFix" result="shape"/>
<feGaussianBlur stdDeviation="16.3823" result="effect1_foregroundBlur_15_9726"/>
</filter>
<linearGradient id="paint0_linear_15_9726" x1="288.364" y1="154.645" x2="40.2629" y2="389.457" gradientUnits="userSpaceOnUse">
<stop stop-color="#F3164E"/>
<stop offset="1" stop-color="#8B0119"/>
</linearGradient>
<clipPath id="clip0_15_9726">
<rect x="100.695" y="119.15" width="218.431" height="218.431" rx="109.215" transform="rotate(-5 100.695 119.15)" fill="white"/>
</clipPath>
</defs>
</svg>
