<svg width="504" height="437" viewBox="0 0 504 437" fill="none" xmlns="http://www.w3.org/2000/svg">
<g filter="url(#filter0_d_15_9728)">
<g clip-path="url(#clip0_15_9728)">
<rect x="112.044" y="143.55" width="218.431" height="218.431" rx="109.215" transform="rotate(-16 112.044 143.55)" fill="url(#paint0_linear_15_9728)"/>
<g filter="url(#filter1_f_15_9728)">
<path opacity="0.7" d="M13.3359 200.826L29.6074 193.116C56.4126 180.414 84.853 171.499 114.112 166.627L127.283 164.434C147.804 161.016 167.751 154.764 186.552 145.855V145.855C205.352 136.947 225.299 130.694 245.821 127.277L272.161 122.89C292.683 119.473 312.63 113.22 331.43 104.312V104.312C350.23 95.4033 370.178 89.1507 390.699 85.7334L430.21 79.154C441.994 77.1917 453.448 73.6014 464.243 68.486V68.486C491.048 55.7843 519.489 46.8693 548.748 41.997L561.918 39.8039C582.44 36.3866 602.387 30.1339 621.187 21.2254C639.988 12.3168 659.935 6.06418 680.456 2.6469L706.797 -1.73939C727.318 -5.15668 747.266 -11.4093 766.066 -20.3179C784.866 -29.2264 804.813 -35.4791 825.335 -38.8964L882.607 -48.4335" stroke="#374F1A" stroke-width="2.91241"/>
<path opacity="0.7" d="M17.3497 214.824L33.6213 207.114C60.4265 194.412 88.8668 185.497 118.126 180.625L131.297 178.432C151.818 175.014 171.765 168.762 190.566 159.853V159.853C209.366 150.945 229.313 144.692 249.834 141.275L276.175 136.888C296.697 133.471 316.644 127.218 335.444 118.31V118.31C354.244 109.401 374.191 103.149 394.713 99.7313L434.224 93.1519C446.008 91.1896 457.462 87.5993 468.257 82.4839V82.4839C495.062 69.7822 523.502 60.8673 552.762 55.9949L565.932 53.8018C586.454 50.3845 606.401 44.1319 625.201 35.2233C644.001 26.3147 663.949 20.0621 684.47 16.6448L710.811 12.2585C731.332 8.84125 751.279 2.58861 770.08 -6.31995C788.88 -15.2285 808.827 -21.4811 829.349 -24.8984L886.621 -34.4355" stroke="#5D7D34" stroke-width="5.82481"/>
<path opacity="0.7" d="M32.4016 267.316L48.6732 259.606C75.4784 246.904 103.919 237.989 133.178 233.117L146.348 230.924C166.87 227.506 186.817 221.254 205.617 212.345V212.345C224.418 203.437 244.365 197.184 264.886 193.767L291.227 189.381C311.749 185.963 331.696 179.711 350.496 170.802V170.802C369.296 161.893 389.243 155.641 409.765 152.224L449.276 145.644C461.06 143.682 472.513 140.092 483.309 134.976V134.976C510.114 122.274 538.554 113.359 567.814 108.487L580.984 106.294C601.506 102.877 621.453 96.6241 640.253 87.7155C659.053 78.807 679 72.5543 699.522 69.137L725.863 64.7508C746.384 61.3335 766.331 55.0808 785.132 46.1723C803.932 37.2637 823.879 31.0111 844.401 27.5938L901.673 18.0567" stroke="#D7EFB8" stroke-width="5.82481"/>
<path opacity="0.7" d="M28.3878 253.318L44.6593 245.608C71.4645 232.906 99.9048 223.991 129.164 219.119L142.335 216.926C162.856 213.509 182.803 207.256 201.604 198.347V198.347C220.404 189.439 240.351 183.186 260.872 179.769L287.213 175.383C307.735 171.965 327.682 165.713 346.482 156.804V156.804C365.282 147.896 385.229 141.643 405.751 138.226L445.262 131.646C457.046 129.684 468.5 126.094 479.295 120.978V120.978C506.1 108.276 534.54 99.3616 563.8 94.4892L576.97 92.2961C597.492 88.8788 617.439 82.6262 636.239 73.7176C655.039 64.809 674.987 58.5564 695.508 55.1391L721.849 50.7528C742.37 47.3355 762.317 41.0829 781.118 32.1743C799.918 23.2658 819.865 17.0131 840.387 13.5959L897.659 4.05877" stroke="#62823A" stroke-width="8.73722"/>
<path opacity="0.7" d="M57.4881 354.803L73.7596 347.093C100.565 334.391 129.005 325.476 158.265 320.604L171.435 318.411C191.957 314.994 211.904 308.741 230.704 299.832V299.832C249.504 290.924 269.451 284.671 289.973 281.254L316.314 276.868C336.835 273.45 356.782 267.198 375.582 258.289V258.289C394.383 249.381 414.33 243.128 434.851 239.711L474.362 233.131C486.146 231.169 497.6 227.579 508.395 222.463V222.463C535.201 209.761 563.641 200.847 592.9 195.974L606.071 193.781C626.592 190.364 646.539 184.111 665.34 175.203C684.14 166.294 704.087 160.041 724.608 156.624L750.949 152.238C771.471 148.821 791.418 142.568 810.218 133.659C829.018 124.751 848.965 118.498 869.487 115.081L926.759 105.544" stroke="#62823A" stroke-width="2.91241"/>
<path opacity="0.7" d="M62.5054 372.301L78.777 364.59C105.582 351.889 134.023 342.974 163.282 338.101L176.452 335.908C196.974 332.491 216.921 326.238 235.721 317.33V317.33C254.521 308.421 274.469 302.169 294.99 298.751L321.331 294.365C341.852 290.948 361.799 284.695 380.6 275.787V275.787C399.4 266.878 419.347 260.625 439.869 257.208L479.38 250.629C491.163 248.666 502.617 245.076 513.413 239.961V239.961C540.218 227.259 568.658 218.344 597.918 213.472L611.088 211.278C631.609 207.861 651.557 201.609 670.357 192.7C689.157 183.791 709.104 177.539 729.626 174.122L755.966 169.735C776.488 166.318 796.435 160.065 815.235 151.157C834.036 142.248 853.983 135.996 874.504 132.578L931.777 123.041" stroke="#789E47" stroke-width="5.82481"/>
<path opacity="0.7" d="M53.4743 340.805L69.7458 333.095C96.5511 320.393 124.991 311.478 154.251 306.606L167.421 304.413C187.943 300.996 207.89 294.743 226.69 285.834V285.834C245.49 276.926 265.437 270.673 285.959 267.256L312.3 262.87C332.821 259.452 352.768 253.2 371.569 244.291V244.291C390.369 235.383 410.316 229.13 430.838 225.713L470.349 219.133C482.132 217.171 493.586 213.581 504.382 208.465V208.465C531.187 195.764 559.627 186.849 588.886 181.976L602.057 179.783C622.578 176.366 642.525 170.113 661.326 161.205C680.126 152.296 700.073 146.043 720.595 142.626L746.935 138.24C767.457 134.823 787.404 128.57 806.204 119.661C825.005 110.753 844.952 104.5 865.473 101.083L922.746 91.5458" stroke="#D0F0A6" stroke-width="5.82481"/>
</g>
<g filter="url(#filter2_f_15_9728)">
<path d="M193.392 78.3153C133.197 196.188 230.266 333.127 361.421 315.362L403.472 309.667L34.5623 373.097L193.392 78.3153Z" fill="url(#paint1_linear_15_9728)" fill-opacity="0.4"/>
</g>
<g opacity="0.2" filter="url(#filter3_f_15_9728)">
<path d="M304.824 356.638C372.188 242.711 283.768 100.035 151.766 109.66L109.443 112.746L481.567 72.2348L304.824 356.638Z" fill="#F3FFE2"/>
</g>
</g>
</g>
<g filter="url(#filter4_f_15_9728)">
<path d="M350.346 178.209C421.679 161.832 471.555 155.534 473.995 164.042C477.53 176.371 380.122 215.118 256.429 250.586C132.736 286.055 29.5964 304.813 26.0613 292.485C23.6217 283.977 69.2566 262.887 138.428 238.976" stroke="url(#paint2_linear_15_9728)" stroke-width="9.46532"/>
</g>
<g opacity="0.8" filter="url(#filter5_f_15_9728)">
<path d="M353.198 186.817C418.073 170.575 456.587 163.519 458 168.445C460.047 175.584 370 207.667 256.875 240.105C143.751 272.543 50.3857 293.052 48.3387 285.913C46.9261 280.987 76.9476 268.391 140.572 247.786" stroke="url(#paint3_linear_15_9728)" stroke-width="3.64051"/>
</g>
<g opacity="0.8" filter="url(#filter6_f_15_9728)">
<path d="M354.038 191.753C412.719 176.354 435.391 171.187 436.246 174.168C437.484 178.487 355.271 205.851 252.617 235.286C149.963 264.722 65.742 285.083 64.5035 280.764C63.6488 277.783 84.019 270.608 141.943 252.57" stroke="url(#paint4_linear_15_9728)" stroke-width="4.36861"/>
</g>
<defs>
<filter id="filter0_d_15_9728" x="82.9198" y="54.2181" width="328.425" height="328.425" filterUnits="userSpaceOnUse" color-interpolation-filters="sRGB">
<feFlood flood-opacity="0" result="BackgroundImageFix"/>
<feColorMatrix in="SourceAlpha" type="matrix" values="0 0 0 0 0 0 0 0 0 0 0 0 0 0 0 0 0 0 127 0" result="hardAlpha"/>
<feOffset/>
<feGaussianBlur stdDeviation="14.562"/>
<feComposite in2="hardAlpha" operator="out"/>
<feColorMatrix type="matrix" values="0 0 0 0 0.201042 0 0 0 0 0.304167 0 0 0 0 0.0544965 0 0 0 0.6 0"/>
<feBlend mode="normal" in2="BackgroundImageFix" result="effect1_dropShadow_15_9728"/>
<feBlend mode="normal" in="SourceGraphic" in2="effect1_dropShadow_15_9728" result="shape"/>
</filter>
<filter id="filter1_f_15_9728" x="3.97506" y="-58.6071" width="937.017" height="442.277" filterUnits="userSpaceOnUse" color-interpolation-filters="sRGB">
<feFlood flood-opacity="0" result="BackgroundImageFix"/>
<feBlend mode="normal" in="SourceGraphic" in2="BackgroundImageFix" result="shape"/>
<feGaussianBlur stdDeviation="4.36861" result="effect1_foregroundBlur_15_9728"/>
</filter>
<filter id="filter2_f_15_9728" x="20.0003" y="63.7532" width="398.034" height="323.906" filterUnits="userSpaceOnUse" color-interpolation-filters="sRGB">
<feFlood flood-opacity="0" result="BackgroundImageFix"/>
<feBlend mode="normal" in="SourceGraphic" in2="BackgroundImageFix" result="shape"/>
<feGaussianBlur stdDeviation="7.28102" result="effect1_foregroundBlur_15_9728"/>
</filter>
<filter id="filter3_f_15_9728" x="91.2401" y="54.0323" width="408.53" height="320.808" filterUnits="userSpaceOnUse" color-interpolation-filters="sRGB">
<feFlood flood-opacity="0" result="BackgroundImageFix"/>
<feBlend mode="normal" in="SourceGraphic" in2="BackgroundImageFix" result="shape"/>
<feGaussianBlur stdDeviation="9.10127" result="effect1_foregroundBlur_15_9728"/>
</filter>
<filter id="filter4_f_15_9728" x="19.4096" y="153.702" width="461.234" height="149.124" filterUnits="userSpaceOnUse" color-interpolation-filters="sRGB">
<feFlood flood-opacity="0" result="BackgroundImageFix"/>
<feBlend mode="normal" in="SourceGraphic" in2="BackgroundImageFix" result="shape"/>
<feGaussianBlur stdDeviation="0.910127" result="effect1_foregroundBlur_15_9728"/>
</filter>
<filter id="filter5_f_15_9728" x="42.8273" y="161.44" width="420.67" height="131.352" filterUnits="userSpaceOnUse" color-interpolation-filters="sRGB">
<feFlood flood-opacity="0" result="BackgroundImageFix"/>
<feBlend mode="normal" in="SourceGraphic" in2="BackgroundImageFix" result="shape"/>
<feGaussianBlur stdDeviation="1.82025" result="effect1_foregroundBlur_15_9728"/>
</filter>
<filter id="filter6_f_15_9728" x="58.6476" y="167.538" width="383.439" height="119.628" filterUnits="userSpaceOnUse" color-interpolation-filters="sRGB">
<feFlood flood-opacity="0" result="BackgroundImageFix"/>
<feBlend mode="normal" in="SourceGraphic" in2="BackgroundImageFix" result="shape"/>
<feGaussianBlur stdDeviation="1.82025" result="effect1_foregroundBlur_15_9728"/>
</filter>
<linearGradient id="paint0_linear_15_9728" x1="313.364" y1="200.16" x2="112.044" y2="272.97" gradientUnits="userSpaceOnUse">
<stop stop-color="#A7CF75"/>
<stop offset="1" stop-color="#627B34"/>
</linearGradient>
<linearGradient id="paint1_linear_15_9728" x1="133.269" y1="298.799" x2="228.893" y2="246.912" gradientUnits="userSpaceOnUse">
<stop/>
<stop offset="1" stop-color="#9DC267"/>
</linearGradient>
<linearGradient id="paint2_linear_15_9728" x1="244.387" y1="208.592" x2="256.429" y2="250.586" gradientUnits="userSpaceOnUse">
<stop stop-color="#516932"/>
<stop offset="1" stop-color="#84AB51"/>
</linearGradient>
<linearGradient id="paint3_linear_15_9728" x1="250.075" y1="216.387" x2="256.875" y2="240.105" gradientUnits="userSpaceOnUse">
<stop stop-color="#5D7A37"/>
<stop offset="1" stop-color="#F3FFE3"/>
</linearGradient>
<linearGradient id="paint4_linear_15_9728" x1="248.788" y1="221.933" x2="252.617" y2="235.286" gradientUnits="userSpaceOnUse">
<stop stop-color="#2B361D"/>
<stop offset="1" stop-color="#64843A"/>
</linearGradient>
<clipPath id="clip0_15_9728">
<rect x="112.044" y="143.55" width="218.431" height="218.431" rx="109.215" transform="rotate(-16 112.044 143.55)" fill="white"/>
</clipPath>
</defs>
</svg>
