<svg width="118" height="141" viewBox="0 0 118 141" fill="none" xmlns="http://www.w3.org/2000/svg">
<g filter="url(#filter0_d_15_4717)">
<g clip-path="url(#clip0_15_4717)">
<rect x="12.5012" y="78.0788" width="66" height="66" rx="33" transform="rotate(-60 12.5012 78.0788)" fill="url(#paint0_linear_15_4717)"/>
<g filter="url(#filter1_f_15_4717)">
<path opacity="0.7" d="M3.06882 111.246L4.98713 106.155C8.14728 97.7681 12.4577 89.8609 17.7946 82.6605L20.1969 79.4194C23.94 74.3693 26.9632 68.8235 29.1796 62.9411V62.9411C31.396 57.0587 34.4192 51.5129 38.1623 46.4628L42.9669 39.9806C46.71 34.9305 49.7332 29.3847 51.9496 23.5023V23.5023C54.166 17.6199 57.1892 12.0741 60.9323 7.02396L68.1391 -2.69927C70.2885 -5.59911 72.0244 -8.78358 73.2971 -12.1613V-12.1613C76.4573 -20.5483 80.7677 -28.4555 86.1046 -35.6559L88.5069 -38.897C92.25 -43.9471 95.2732 -49.4929 97.4896 -55.3753C99.706 -61.2577 102.729 -66.8035 106.472 -71.8536L111.277 -78.3358C115.02 -83.3859 118.043 -88.9317 120.26 -94.8141C122.476 -100.697 125.499 -106.242 129.242 -111.292L139.689 -125.387" stroke="#5D2FE4" stroke-width="0.88"/>
<path opacity="0.7" d="M6.87932 113.446L8.79763 108.355C11.9578 99.968 16.2682 92.0609 21.6051 84.8605L24.0074 81.6194C27.7505 76.5693 30.7737 71.0235 32.9901 65.1411V65.1411C35.2065 59.2587 38.2297 53.7129 41.9728 48.6627L46.7774 42.1806C50.5205 37.1305 53.5437 31.5846 55.7601 25.7023V25.7023C57.9765 19.8199 60.9997 14.2741 64.7428 9.22394L71.9496 -0.499284C74.099 -3.39913 75.8349 -6.5836 77.1076 -9.96134V-9.96134C80.2678 -18.3484 84.5782 -26.2555 89.9151 -33.4559L92.3174 -36.697C96.0605 -41.7471 99.0837 -47.293 101.3 -53.1753C103.517 -59.0577 106.54 -64.6035 110.283 -69.6537L115.087 -76.1358C118.831 -81.1859 121.854 -86.7318 124.07 -92.6141C126.287 -98.4965 129.31 -104.042 133.053 -109.092L143.499 -123.187" stroke="#120827" stroke-width="1.76"/>
<path opacity="0.7" d="M28.7898 126.096L30.7081 121.005C33.8682 112.618 38.1786 104.711 43.5155 97.5105L45.9178 94.2694C49.661 89.2193 52.6841 83.6735 54.9005 77.7911V77.7911C57.117 71.9087 60.1401 66.3629 63.8833 61.3128L68.6878 54.8306C72.431 49.7805 75.4541 44.2347 77.6705 38.3523V38.3523C79.887 32.4699 82.9101 26.9241 86.6533 21.874L93.8601 12.1507C96.0094 9.25089 97.7454 6.06642 99.0181 2.68869V2.68869C102.178 -5.69834 106.489 -13.6055 111.826 -20.8059L114.228 -24.047C117.971 -29.0971 120.994 -34.6429 123.211 -40.5253C125.427 -46.4077 128.45 -51.9535 132.193 -57.0036L136.998 -63.4858C140.741 -68.5359 143.764 -74.0817 145.981 -79.9641C148.197 -85.8465 151.22 -91.3923 154.963 -96.4424L165.41 -110.537" stroke="#B098E4" stroke-width="3.52"/>
<path opacity="0.7" d="M20.8829 121.531L22.8013 116.44C25.9614 108.053 30.2718 100.146 35.6087 92.9455L38.011 89.7044C41.7541 84.6543 44.7773 79.1085 46.9937 73.2261V73.2261C49.2101 67.3437 52.2333 61.7979 55.9764 56.7478L60.781 50.2656C64.5241 45.2155 67.5473 39.6697 69.7637 33.7873V33.7873C71.9801 27.9049 75.0033 22.3591 78.7464 17.309L85.9533 7.58574C88.1026 4.68589 89.8386 1.50142 91.1113 -1.87631V-1.87631C94.2714 -10.2633 98.5818 -18.1705 103.919 -25.3709L106.321 -28.612C110.064 -33.6621 113.087 -39.2079 115.304 -45.0903C117.52 -50.9727 120.543 -56.5185 124.286 -61.5686L129.091 -68.0508C132.834 -73.1009 135.857 -78.6467 138.074 -84.5291C140.29 -90.4115 143.313 -95.9573 147.056 -101.007L157.503 -115.102" stroke="#331E6F" stroke-width="4.62"/>
<path opacity="0.7" d="M44.9844 135.446L46.9028 130.355C50.0629 121.968 54.3733 114.061 59.7102 106.86L62.1125 103.619C65.8556 98.5693 68.8788 93.0235 71.0952 87.1411V87.1411C73.3116 81.2587 76.3348 75.7129 80.0779 70.6627L84.8825 64.1806C88.6256 59.1305 91.6488 53.5846 93.8652 47.7023V47.7023C96.0816 41.8199 99.1048 36.2741 102.848 31.2239L110.055 21.5007C112.204 18.6009 113.94 15.4164 115.213 12.0387V12.0387C118.373 3.65164 122.683 -4.25552 128.02 -11.4559L130.422 -14.697C134.166 -19.7471 137.189 -25.293 139.405 -31.1753C141.622 -37.0577 144.645 -42.6035 148.388 -47.6537L153.192 -54.1358C156.936 -59.1859 159.959 -64.7318 162.175 -70.6141C164.392 -76.4965 167.415 -82.0423 171.158 -87.0925L181.604 -101.187" stroke="#6C44DD" stroke-width="0.88"/>
<path opacity="0.7" d="M49.7476 138.196L51.6659 133.105C54.826 124.718 59.1364 116.811 64.4734 109.61L66.8756 106.369C70.6188 101.319 73.6419 95.7735 75.8584 89.8911V89.8911C78.0748 84.0087 81.0979 78.4629 84.8411 73.4127L89.6456 66.9306C93.3888 61.8805 96.4119 56.3346 98.6284 50.4523V50.4523C100.845 44.5699 103.868 39.0241 107.611 33.9739L114.818 24.2507C116.967 21.3509 118.703 18.1664 119.976 14.7887V14.7887C123.136 6.40164 127.446 -1.50552 132.783 -8.70593L135.186 -11.947C138.929 -16.9971 141.952 -22.543 144.168 -28.4253C146.385 -34.3077 149.408 -39.8535 153.151 -44.9037L157.956 -51.3858C161.699 -56.4359 164.722 -61.9818 166.938 -67.8641C169.155 -73.7465 172.178 -79.2923 175.921 -84.3425L186.368 -98.4366" stroke="#180F37" stroke-width="1.76"/>
<path opacity="0.7" d="M41.1739 133.246L43.0922 128.155C46.2524 119.768 50.5628 111.861 55.8997 104.66L58.302 101.419C62.0451 96.3693 65.0683 90.8235 67.2847 84.9411V84.9411C69.5011 79.0587 72.5243 73.5129 76.2674 68.4628L81.072 61.9806C84.8151 56.9305 87.8383 51.3847 90.0547 45.5023V45.5023C92.2711 39.6199 95.2943 34.0741 99.0374 29.024L106.244 19.3007C108.394 16.4009 110.13 13.2164 111.402 9.83868V9.83868C114.562 1.45166 118.873 -6.4555 124.21 -13.6559L126.612 -16.897C130.355 -21.9471 133.378 -27.4929 135.595 -33.3753C137.811 -39.2577 140.834 -44.8035 144.577 -49.8536L149.382 -56.3358C153.125 -61.3859 156.148 -66.9317 158.365 -72.8141C160.581 -78.6965 163.604 -84.2423 167.347 -89.2924L177.794 -103.387" stroke="#401F9E" stroke-width="1.76"/>
</g>
<g filter="url(#filter2_f_15_4717)">
<path d="M16.49 46.8254C28.1474 85.0798 77.9882 94.4697 102.767 63.0798L110.711 53.0154L43.8413 144.235L16.49 46.8254Z" fill="url(#paint1_linear_15_4717)" fill-opacity="0.4"/>
</g>
<g opacity="0.2" filter="url(#filter3_f_15_4717)">
<path d="M99.1287 83.9304C89.8576 45.0287 40.6924 32.5766 14.0216 62.3753L5.47029 71.9295L77.8495 -14.9828L99.1287 83.9304Z" fill="#DDCDFF"/>
</g>
</g>
</g>
<g opacity="0.8" filter="url(#filter4_f_15_4717)">
<path d="M71.5007 35.4513C82.1129 18.4416 88.9566 8.9044 90.2977 9.67866C92.2409 10.8006 79.5165 36.478 61.8769 67.0307C44.2373 97.5834 28.3622 121.442 26.419 120.32C25.0779 119.546 28.9209 110.573 38.3456 92.8775" stroke="url(#paint2_linear_15_4717)" stroke-width="1.76"/>
</g>
<g opacity="0.8" filter="url(#filter5_f_15_4717)">
<path d="M72.7199 36.3467C82.1703 20.8078 85.9861 14.9738 86.7974 15.4423C87.9732 16.1211 75.9502 39.1467 59.9433 66.8714C43.9364 94.5962 30.0071 116.521 28.8314 115.842C28.02 115.374 30.9158 109.583 39.6478 93.6294" stroke="url(#paint3_linear_15_4717)" stroke-width="1.32"/>
</g>
<defs>
<filter id="filter0_d_15_4717" x="-17.4988" y="8.92114" width="150.158" height="150.158" filterUnits="userSpaceOnUse" color-interpolation-filters="sRGB">
<feFlood flood-opacity="0" result="BackgroundImageFix"/>
<feColorMatrix in="SourceAlpha" type="matrix" values="0 0 0 0 0 0 0 0 0 0 0 0 0 0 0 0 0 0 127 0" result="hardAlpha"/>
<feOffset dy="18"/>
<feGaussianBlur stdDeviation="15"/>
<feComposite in2="hardAlpha" operator="out"/>
<feColorMatrix type="matrix" values="0 0 0 0 0.124624 0 0 0 0 0.0614583 0 0 0 0 0.245833 0 0 0 0.3 0"/>
<feBlend mode="normal" in2="BackgroundImageFix" result="effect1_dropShadow_15_4717"/>
<feBlend mode="normal" in="SourceGraphic" in2="effect1_dropShadow_15_4717" result="shape"/>
</filter>
<filter id="filter1_f_15_4717" x="0.897074" y="-127.409" width="187.938" height="267.675" filterUnits="userSpaceOnUse" color-interpolation-filters="sRGB">
<feFlood flood-opacity="0" result="BackgroundImageFix"/>
<feBlend mode="normal" in="SourceGraphic" in2="BackgroundImageFix" result="shape"/>
<feGaussianBlur stdDeviation="0.88" result="effect1_foregroundBlur_15_4717"/>
</filter>
<filter id="filter2_f_15_4717" x="12.09" y="42.4254" width="103.021" height="106.209" filterUnits="userSpaceOnUse" color-interpolation-filters="sRGB">
<feFlood flood-opacity="0" result="BackgroundImageFix"/>
<feBlend mode="normal" in="SourceGraphic" in2="BackgroundImageFix" result="shape"/>
<feGaussianBlur stdDeviation="2.2" result="effect1_foregroundBlur_15_4717"/>
</filter>
<filter id="filter3_f_15_4717" x="-0.0297093" y="-20.4828" width="104.658" height="109.913" filterUnits="userSpaceOnUse" color-interpolation-filters="sRGB">
<feFlood flood-opacity="0" result="BackgroundImageFix"/>
<feBlend mode="normal" in="SourceGraphic" in2="BackgroundImageFix" result="shape"/>
<feGaussianBlur stdDeviation="2.75" result="effect1_foregroundBlur_15_4717"/>
</filter>
<filter id="filter4_f_15_4717" x="24.1797" y="7.65507" width="68.294" height="114.684" filterUnits="userSpaceOnUse" color-interpolation-filters="sRGB">
<feFlood flood-opacity="0" result="BackgroundImageFix"/>
<feBlend mode="normal" in="SourceGraphic" in2="BackgroundImageFix" result="shape"/>
<feGaussianBlur stdDeviation="0.55" result="effect1_foregroundBlur_15_4717"/>
</filter>
<filter id="filter5_f_15_4717" x="26.9411" y="13.6565" width="61.6957" height="103.961" filterUnits="userSpaceOnUse" color-interpolation-filters="sRGB">
<feFlood flood-opacity="0" result="BackgroundImageFix"/>
<feBlend mode="normal" in="SourceGraphic" in2="BackgroundImageFix" result="shape"/>
<feGaussianBlur stdDeviation="0.55" result="effect1_foregroundBlur_15_4717"/>
</filter>
<linearGradient id="paint0_linear_15_4717" x1="73.3312" y1="95.1838" x2="12.5012" y2="117.184" gradientUnits="userSpaceOnUse">
<stop stop-color="#B68AFF"/>
<stop offset="1" stop-color="#3E16B6"/>
</linearGradient>
<linearGradient id="paint1_linear_15_4717" x1="49.7007" y1="107.367" x2="59.5939" y2="76.0187" gradientUnits="userSpaceOnUse">
<stop stop-color="#281E3C"/>
<stop offset="1" stop-color="#6B47B4"/>
</linearGradient>
<linearGradient id="paint2_linear_15_4717" x1="55.4205" y1="63.3031" x2="61.8769" y2="67.0307" gradientUnits="userSpaceOnUse">
<stop stop-color="#311D64"/>
<stop offset="1" stop-color="#DCCBFF"/>
</linearGradient>
<linearGradient id="paint3_linear_15_4717" x1="56.3082" y1="64.7727" x2="59.9433" y2="66.8715" gradientUnits="userSpaceOnUse">
<stop stop-color="#9747FF"/>
<stop offset="1" stop-color="#A77FF2"/>
</linearGradient>
<clipPath id="clip0_15_4717">
<rect x="12.5012" y="78.0788" width="66" height="66" rx="33" transform="rotate(-60 12.5012 78.0788)" fill="white"/>
</clipPath>
</defs>
</svg>
