<svg width="505" height="437" viewBox="0 0 505 437" fill="none" xmlns="http://www.w3.org/2000/svg">
<g filter="url(#filter0_d_15_9729)">
<g clip-path="url(#clip0_15_9729)">
<rect x="98.4237" y="258.406" width="218.431" height="218.431" rx="109.215" transform="rotate(-60 98.4237 258.406)" fill="url(#paint0_linear_15_9729)"/>
<g filter="url(#filter1_f_15_9729)">
<path opacity="0.7" d="M67.2067 368.175L73.5554 351.326C84.0141 323.569 98.2795 297.399 115.942 273.569L123.893 262.843C136.281 246.129 146.286 227.775 153.622 208.307V208.307C160.957 188.839 170.962 170.485 183.35 153.771L199.251 132.318C211.64 115.604 221.645 97.2501 228.98 77.782V77.782C236.316 58.314 246.321 39.9598 258.709 23.2461L282.56 -8.93341C289.674 -18.5306 295.419 -29.0698 299.631 -40.2486V-40.2486C310.09 -68.0059 324.355 -94.175 342.018 -118.005L349.968 -128.732C362.357 -145.445 372.362 -163.8 379.697 -183.268C387.033 -202.736 397.038 -221.09 409.426 -237.804L425.327 -259.257C437.715 -275.97 447.72 -294.324 455.056 -313.792C462.391 -333.26 472.396 -351.615 484.785 -368.328L519.358 -414.973" stroke="#5D2FE4" stroke-width="2.91241"/>
<path opacity="0.7" d="M79.8178 375.456L86.1665 358.607C96.6252 330.85 110.891 304.68 128.553 280.85L136.504 270.124C148.892 253.41 158.897 235.056 166.233 215.588V215.588C173.568 196.12 183.573 177.766 195.962 161.052L211.862 139.599C224.251 122.885 234.256 104.531 241.591 85.063V85.063C248.927 65.595 258.932 47.2408 271.32 30.5272L295.171 -1.65239C302.285 -11.2496 308.03 -21.7888 312.242 -32.9676V-32.9676C322.701 -60.7249 336.966 -86.894 354.629 -110.724L362.58 -121.451C374.968 -138.164 384.973 -156.519 392.308 -175.987C399.644 -195.455 409.649 -213.809 422.037 -230.523L437.938 -251.975C450.326 -268.689 460.332 -287.043 467.667 -306.511C475.002 -325.979 485.008 -344.334 497.396 -361.047L531.969 -407.692" stroke="#120827" stroke-width="5.82481"/>
<path opacity="0.7" d="M152.332 417.322L158.68 400.473C169.139 372.715 183.404 346.546 201.067 322.716L209.018 311.99C221.406 295.276 231.411 276.922 238.747 257.454V257.454C246.082 237.986 256.087 219.632 268.475 202.918L284.376 181.465C296.764 164.751 306.77 146.397 314.105 126.929V126.929C321.44 107.461 331.446 89.1067 343.834 72.393L367.685 40.2135C374.799 30.6163 380.544 20.0771 384.756 8.8983V8.8983C395.215 -18.859 409.48 -45.0282 427.143 -68.8583L435.093 -79.5848C447.481 -96.2985 457.487 -114.653 464.822 -134.121C472.158 -153.589 482.163 -171.943 494.551 -188.657L510.452 -210.11C522.84 -226.823 532.845 -245.178 540.181 -264.646C547.516 -284.114 557.521 -302.468 569.909 -319.181L604.483 -365.827" stroke="#B098E4" stroke-width="11.6496"/>
<path opacity="0.7" d="M126.163 402.214L132.512 385.365C142.971 357.607 157.236 331.438 174.899 307.608L182.85 296.881C195.238 280.168 205.243 261.814 212.578 242.346V242.346C219.914 222.878 229.919 204.523 242.307 187.81L258.208 166.357C270.596 149.643 280.602 131.289 287.937 111.821V111.821C295.272 92.3527 305.278 73.9986 317.666 57.2849L341.517 25.1053C348.631 15.5082 354.376 4.96897 358.588 -6.20982V-6.20982C369.046 -33.9671 383.312 -60.1363 400.975 -83.9664L408.925 -94.6929C421.313 -111.407 431.319 -129.761 438.654 -149.229C445.989 -168.697 455.995 -187.051 468.383 -203.765L484.284 -225.218C496.672 -241.931 506.677 -260.286 514.013 -279.754C521.348 -299.222 531.353 -317.576 543.741 -334.29L578.315 -380.935" stroke="#331E6F" stroke-width="15.2901"/>
<path opacity="0.7" d="M205.929 448.267L212.277 431.417C222.736 403.66 237.001 377.491 254.664 353.66L262.615 342.934C275.003 326.22 285.008 307.866 292.344 288.398V288.398C299.679 268.93 309.684 250.576 322.072 233.862L337.973 212.409C350.361 195.695 360.367 177.341 367.702 157.873V157.873C375.037 138.405 385.043 120.051 397.431 103.337L421.282 71.1578C428.396 61.5606 434.141 51.0214 438.353 39.8426V39.8426C448.812 12.0853 463.077 -14.0838 480.74 -37.914L488.69 -48.6405C501.078 -65.3542 511.084 -83.7084 518.419 -103.176C525.755 -122.644 535.76 -140.999 548.148 -157.712L564.049 -179.165C576.437 -195.879 586.442 -214.233 593.778 -233.701C601.113 -253.169 611.118 -271.523 623.507 -288.237L658.08 -334.882" stroke="#6C44DD" stroke-width="2.91241"/>
<path opacity="0.7" d="M221.693 457.368L228.041 440.518C238.5 412.761 252.765 386.592 270.428 362.762L278.379 352.035C290.767 335.322 300.772 316.967 308.107 297.499V297.499C315.443 278.031 325.448 259.677 337.836 242.963L353.737 221.51C366.125 204.797 376.131 186.443 383.466 166.975V166.975C390.801 147.506 400.807 129.152 413.195 112.439L437.046 80.2591C444.16 70.6619 449.905 60.1227 454.117 48.9439V48.9439C464.576 21.1866 478.841 -4.98255 496.504 -28.8127L504.454 -39.5392C516.842 -56.2529 526.848 -74.6071 534.183 -94.0751C541.518 -113.543 551.524 -131.897 563.912 -148.611L579.813 -170.064C592.201 -186.778 602.206 -205.132 609.542 -224.6C616.877 -244.068 626.882 -262.422 639.27 -279.136L673.844 -325.781" stroke="#180F37" stroke-width="5.82481"/>
<path opacity="0.7" d="M193.318 440.986L199.666 424.136C210.125 396.379 224.39 370.21 242.053 346.379L250.004 335.653C262.392 318.939 272.397 300.585 279.732 281.117V281.117C287.068 261.649 297.073 243.295 309.461 226.581L325.362 205.128C337.75 188.414 347.756 170.06 355.091 150.592V150.592C362.426 131.124 372.432 112.77 384.82 96.0563L408.671 63.8768C415.785 54.2796 421.53 43.7404 425.742 32.5616V32.5616C436.201 4.8043 450.466 -21.3649 468.129 -45.195L476.079 -55.9215C488.467 -72.6352 498.473 -90.9894 505.808 -110.457C513.143 -129.925 523.149 -148.28 535.537 -164.993L551.438 -186.446C563.826 -203.16 573.831 -221.514 581.167 -240.982C588.502 -260.45 598.507 -278.805 610.895 -295.518L645.469 -342.163" stroke="#401F9E" stroke-width="5.82481"/>
</g>
<g filter="url(#filter2_f_15_9729)">
<path d="M111.625 154.971C150.206 281.576 315.156 312.652 397.162 208.766L423.454 175.457L202.145 477.352L111.625 154.971Z" fill="url(#paint1_linear_15_9729)" fill-opacity="0.4"/>
</g>
<g opacity="0.2" filter="url(#filter3_f_15_9729)">
<path d="M385.122 277.772C354.439 149.025 191.724 107.814 103.455 206.434L75.1545 238.054L314.697 -49.5864L385.122 277.772Z" fill="#DDCDFF"/>
</g>
</g>
</g>
<g opacity="0.8" filter="url(#filter4_f_15_9729)">
<path d="M293.685 117.328C328.807 61.0337 351.457 29.4696 355.895 32.0321C362.326 35.7452 320.214 120.726 261.835 221.842C203.456 322.957 150.917 401.918 144.485 398.205C140.047 395.642 152.766 365.947 183.957 307.383" stroke="url(#paint2_linear_15_9729)" stroke-width="5.82481"/>
</g>
<g opacity="0.8" filter="url(#filter5_f_15_9729)">
<path d="M297.721 120.291C328.997 68.8645 341.626 49.5566 344.311 51.107C348.202 53.3536 308.411 129.558 255.436 221.315C202.46 313.071 156.36 385.633 152.469 383.387C149.784 381.836 159.368 362.671 188.267 309.871" stroke="url(#paint3_linear_15_9729)" stroke-width="4.36861"/>
</g>
<defs>
<filter id="filter0_d_15_9729" x="69.2996" y="40.1155" width="356.63" height="356.63" filterUnits="userSpaceOnUse" color-interpolation-filters="sRGB">
<feFlood flood-opacity="0" result="BackgroundImageFix"/>
<feColorMatrix in="SourceAlpha" type="matrix" values="0 0 0 0 0 0 0 0 0 0 0 0 0 0 0 0 0 0 127 0" result="hardAlpha"/>
<feOffset/>
<feGaussianBlur stdDeviation="14.562"/>
<feComposite in2="hardAlpha" operator="out"/>
<feColorMatrix type="matrix" values="0 0 0 0 0.124624 0 0 0 0 0.0614583 0 0 0 0 0.245833 0 0 0 1 0"/>
<feBlend mode="normal" in2="BackgroundImageFix" result="effect1_dropShadow_15_9729"/>
<feBlend mode="normal" in="SourceGraphic" in2="effect1_dropShadow_15_9729" result="shape"/>
</filter>
<filter id="filter1_f_15_9729" x="60.0192" y="-421.665" width="621.989" height="885.885" filterUnits="userSpaceOnUse" color-interpolation-filters="sRGB">
<feFlood flood-opacity="0" result="BackgroundImageFix"/>
<feBlend mode="normal" in="SourceGraphic" in2="BackgroundImageFix" result="shape"/>
<feGaussianBlur stdDeviation="2.91241" result="effect1_foregroundBlur_15_9729"/>
</filter>
<filter id="filter2_f_15_9729" x="97.0628" y="140.409" width="340.954" height="351.505" filterUnits="userSpaceOnUse" color-interpolation-filters="sRGB">
<feFlood flood-opacity="0" result="BackgroundImageFix"/>
<feBlend mode="normal" in="SourceGraphic" in2="BackgroundImageFix" result="shape"/>
<feGaussianBlur stdDeviation="7.28102" result="effect1_foregroundBlur_15_9729"/>
</filter>
<filter id="filter3_f_15_9729" x="56.9519" y="-67.789" width="346.373" height="363.764" filterUnits="userSpaceOnUse" color-interpolation-filters="sRGB">
<feFlood flood-opacity="0" result="BackgroundImageFix"/>
<feBlend mode="normal" in="SourceGraphic" in2="BackgroundImageFix" result="shape"/>
<feGaussianBlur stdDeviation="9.10127" result="effect1_foregroundBlur_15_9729"/>
</filter>
<filter id="filter4_f_15_9729" x="137.074" y="25.3349" width="226.023" height="379.552" filterUnits="userSpaceOnUse" color-interpolation-filters="sRGB">
<feFlood flood-opacity="0" result="BackgroundImageFix"/>
<feBlend mode="normal" in="SourceGraphic" in2="BackgroundImageFix" result="shape"/>
<feGaussianBlur stdDeviation="1.82025" result="effect1_foregroundBlur_15_9729"/>
</filter>
<filter id="filter5_f_15_9729" x="146.213" y="45.1967" width="204.185" height="344.066" filterUnits="userSpaceOnUse" color-interpolation-filters="sRGB">
<feFlood flood-opacity="0" result="BackgroundImageFix"/>
<feBlend mode="normal" in="SourceGraphic" in2="BackgroundImageFix" result="shape"/>
<feGaussianBlur stdDeviation="1.82025" result="effect1_foregroundBlur_15_9729"/>
</filter>
<linearGradient id="paint0_linear_15_9729" x1="299.744" y1="315.016" x2="98.4235" y2="387.826" gradientUnits="userSpaceOnUse">
<stop stop-color="#B68AFF"/>
<stop offset="1" stop-color="#3E16B6"/>
</linearGradient>
<linearGradient id="paint1_linear_15_9729" x1="221.537" y1="355.338" x2="254.279" y2="251.588" gradientUnits="userSpaceOnUse">
<stop stop-color="#281E3C"/>
<stop offset="1" stop-color="#6B47B4"/>
</linearGradient>
<linearGradient id="paint2_linear_15_9729" x1="240.467" y1="209.505" x2="261.835" y2="221.842" gradientUnits="userSpaceOnUse">
<stop stop-color="#311D64"/>
<stop offset="1" stop-color="#DCCBFF"/>
</linearGradient>
<linearGradient id="paint3_linear_15_9729" x1="243.405" y1="214.369" x2="255.436" y2="221.315" gradientUnits="userSpaceOnUse">
<stop stop-color="#9747FF"/>
<stop offset="1" stop-color="#A77FF2"/>
</linearGradient>
<clipPath id="clip0_15_9729">
<rect x="98.4237" y="258.406" width="218.431" height="218.431" rx="109.215" transform="rotate(-60 98.4237 258.406)" fill="white"/>
</clipPath>
</defs>
</svg>
