<svg width="438" height="437" viewBox="0 0 438 437" fill="none" xmlns="http://www.w3.org/2000/svg">
<g filter="url(#filter0_d_15_9727)">
<g clip-path="url(#clip0_15_9727)">
<rect x="95.5227" y="125.478" width="218.431" height="218.431" rx="109.215" transform="rotate(-8 95.5227 125.478)" fill="url(#paint0_linear_15_9727)"/>
<g filter="url(#filter1_f_15_9727)">
<path opacity="0.8" d="M23.6463 274.911L93.6284 241.221C113.914 231.455 136.75 228.288 158.928 232.165L200.288 239.396C222.336 243.251 245.037 240.144 265.239 230.508L305.824 211.149C325.904 201.57 348.457 198.442 370.386 202.193L413.241 209.523C435.433 213.319 458.257 210.069 478.507 200.229L517.148 181.452C537.52 171.553 560.492 168.324 582.803 172.225L624.909 179.586C647.22 183.486 670.192 180.258 690.564 170.359L729.009 151.677C749.38 141.778 772.353 138.549 794.664 142.45L871.088 155.811" stroke="#D66C14" stroke-width="11.6496"/>
<path opacity="0.5" d="M-12.9449 316L57.0372 282.31C77.3233 272.544 100.159 269.377 122.337 273.255L163.697 280.485C185.745 284.34 208.446 281.233 228.648 271.597L269.232 252.238C289.313 242.659 311.865 239.531 333.795 243.282L376.65 250.613C398.842 254.409 421.666 251.158 441.916 241.318L480.557 222.541C500.929 212.642 523.901 209.413 546.212 213.314L588.318 220.675C610.628 224.575 633.601 221.347 653.972 211.448L692.418 192.766C712.789 182.867 735.762 179.638 758.073 183.539L834.497 196.9" stroke="#D66C14" stroke-width="8.73722"/>
<path d="M11.2196 289.892L81.2017 256.202C101.488 246.436 124.323 243.269 146.501 247.146L187.861 254.377C209.909 258.232 232.611 255.125 252.813 245.489L293.397 226.13C313.477 216.551 336.03 213.423 357.959 217.174L400.815 224.504C423.007 228.3 445.83 225.05 466.08 215.21L504.722 196.433C525.093 186.534 548.066 183.305 570.377 187.206L612.482 194.567C634.793 198.467 657.765 195.239 678.137 185.34L716.582 166.658C736.954 156.759 759.926 153.53 782.237 157.431L858.662 170.792" stroke="#D66C14" stroke-width="5.82481"/>
<path d="M-1.06778 298.971L68.9143 265.281C89.2004 255.515 112.036 252.349 134.214 256.226L175.574 263.457C197.622 267.311 220.323 264.205 240.525 254.568L281.109 235.209C301.19 225.631 323.743 222.502 345.672 226.253L388.527 233.584C410.719 237.38 433.543 234.13 453.793 224.289L492.434 205.512C512.806 195.613 535.778 192.385 558.089 196.285L600.195 203.646C622.505 207.547 645.478 204.318 665.85 194.419L704.295 175.737C724.666 165.838 747.639 162.61 769.95 166.51L846.374 179.871" stroke="#D66C14" stroke-width="2.91241"/>
<path d="M3.45704 301.813L73.4392 268.123C93.7252 258.357 116.561 255.19 138.739 259.067L180.099 266.298C202.147 270.153 224.848 267.046 245.05 257.41L285.634 238.051C305.715 228.472 328.267 225.344 350.197 229.095L393.052 236.425C415.244 240.221 438.068 236.971 458.318 227.131L496.959 208.354C517.331 198.455 540.303 195.226 562.614 199.127L604.72 206.488C627.03 210.388 650.003 207.16 670.374 197.261L708.82 178.579C729.191 168.68 752.164 165.451 774.475 169.352L850.899 182.712" stroke="#D66C14" stroke-width="1.4562"/>
<path d="M-5.36029 307.228L64.6218 273.538C84.9079 263.772 107.743 260.605 129.921 264.482L171.281 271.713C193.329 275.568 216.031 272.461 236.233 262.825L276.817 243.466C296.897 233.887 319.45 230.759 341.379 234.51L384.235 241.84C406.427 245.636 429.25 242.386 449.501 232.546L488.142 213.769C508.513 203.87 531.486 200.641 553.797 204.542L595.902 211.903C618.213 215.803 641.186 212.575 661.557 202.676L700.002 183.994C720.374 174.095 743.346 170.866 765.657 174.767L842.082 188.128" stroke="#D66C14" stroke-width="1.4562"/>
<path d="M18.4899 339.843L92.6927 304.939C112.464 295.639 134.595 292.569 156.151 296.136L202.857 303.865C224.286 307.411 246.287 304.398 265.975 295.221L311.65 273.931C331.219 264.809 353.076 261.777 374.389 265.225L422.63 273.031C444.199 276.521 466.319 273.372 486.057 264.001L529.752 243.257C549.609 233.831 571.873 230.701 593.559 234.29L641.071 242.152C662.756 245.74 685.021 242.611 704.877 233.184L748.382 212.531C768.238 203.104 790.503 199.975 812.188 203.563L893.008 216.937" stroke="#D66C14" stroke-width="0.728102"/>
<path d="M3.86344 347.28L78.0662 312.377C97.8375 303.077 119.969 300.007 141.525 303.574L188.23 311.302C209.66 314.848 231.661 311.836 251.348 302.659L297.024 281.369C316.592 272.247 338.45 269.214 359.762 272.663L408.004 280.469C429.572 283.959 451.692 280.81 471.43 271.439L515.126 250.695C534.982 241.268 557.246 238.139 578.932 241.728L626.444 249.59C648.13 253.178 670.394 250.049 690.251 240.622L733.755 219.969C753.612 210.542 775.876 207.413 797.562 211.001L878.382 224.375" stroke="#D66C14" stroke-width="0.728102"/>
<path d="M20.9084 350.003L95.1112 315.1C114.882 305.8 137.014 302.73 158.57 306.297L205.275 314.025C226.705 317.571 248.706 314.558 268.393 305.382L314.069 284.091C333.637 274.97 355.495 271.937 376.807 275.386L425.049 283.191C446.617 286.681 468.737 283.532 488.475 274.162L532.171 253.418C552.027 243.991 574.291 240.862 595.977 244.45L643.489 252.312C665.175 255.901 687.439 252.772 707.296 243.345L750.8 222.691C770.657 213.265 792.921 210.136 814.607 213.724L895.427 227.097" stroke="#D66C14" stroke-width="2.91241"/>
<path opacity="0.8" d="M14.2048 354.621L88.4076 319.718C108.179 310.418 130.31 307.348 151.866 310.915L198.572 318.644C220.001 322.19 242.002 319.177 261.69 310L307.365 288.71C326.934 279.588 348.791 276.555 370.104 280.004L418.345 287.81C439.914 291.3 462.034 288.151 481.772 278.78L525.467 258.036C545.323 248.609 567.588 245.48 589.273 249.069L636.786 256.931C658.471 260.519 680.736 257.39 700.592 247.963L744.097 227.31C763.953 217.883 786.217 214.754 807.903 218.342L888.723 231.716" stroke="#D66C14" stroke-width="5.82481"/>
<path d="M14.9871 365.563L89.1899 330.659C108.961 321.359 131.092 318.289 152.648 321.856L199.354 329.585C220.784 333.131 242.785 330.118 262.472 320.941L308.148 299.651C327.716 290.53 349.573 287.497 370.886 290.945L419.127 298.751C440.696 302.241 462.816 299.092 482.554 289.721L526.249 268.977C546.106 259.551 568.37 256.422 590.056 260.01L637.568 267.872C659.253 271.46 681.518 268.331 701.374 258.904L744.879 238.251C764.735 228.824 787 225.695 808.685 229.284L889.505 242.657" stroke="#D66C14" stroke-width="1.4562"/>
<path d="M10.1303 268.355L80.1125 234.665C100.399 224.899 123.234 221.732 145.412 225.609L186.772 232.84C208.82 236.695 231.521 233.588 251.723 223.952L292.308 204.593C312.388 195.014 334.941 191.886 356.87 195.637L399.725 202.967C421.917 206.763 444.741 203.513 464.991 193.673L503.633 174.896C524.004 164.997 546.977 161.768 569.287 165.669L611.393 173.03C633.704 176.93 656.676 173.702 677.048 163.803L715.493 145.121C735.864 135.222 758.837 131.993 781.148 135.894L857.572 149.255" stroke="#D66C14" stroke-width="2.91241"/>
<path d="M0.740716 265.011L70.7228 231.321C91.0089 221.555 113.844 218.388 136.022 222.265L177.382 229.496C199.43 233.351 222.132 230.244 242.334 220.608L282.918 201.249C302.998 191.67 325.551 188.542 347.48 192.293L390.336 199.623C412.528 203.419 435.351 200.169 455.602 190.329L494.243 171.552C514.614 161.653 537.587 158.424 559.898 162.325L602.003 169.686C624.314 173.586 647.287 170.358 667.658 160.459L706.103 141.777C726.475 131.878 749.447 128.649 771.758 132.55L848.183 145.911" stroke="#D66C14" stroke-width="1.4562"/>
<path opacity="0.5" d="M-39.7655 195.959L34.4373 161.056C54.2086 151.756 76.3397 148.686 97.8959 152.253L144.601 159.982C166.031 163.528 188.032 160.515 207.719 151.338L253.395 130.048C272.964 120.926 294.821 117.894 316.133 121.342L364.375 129.148C385.943 132.638 408.064 129.489 427.801 120.118L471.497 99.3742C491.353 89.9475 513.618 86.8184 535.303 90.4068L582.815 98.2688C604.501 101.857 626.765 98.7281 646.622 89.3014L690.126 68.6478C709.983 59.2211 732.247 56.092 753.933 59.6804L834.753 73.0539" stroke="#D66C14" stroke-width="2.91241"/>
<path d="M-26.5556 188.203L47.6472 153.3C67.4184 144 89.5496 140.93 111.106 144.497L157.811 152.226C179.241 155.772 201.242 152.759 220.929 143.582L266.605 122.292C286.173 113.17 308.031 110.137 329.343 113.586L377.585 121.392C399.153 124.882 421.273 121.733 441.011 112.362L484.707 91.6181C504.563 82.1914 526.827 79.0624 548.513 82.6507L596.025 90.5127C617.711 94.1011 639.975 90.972 659.832 81.5453L703.336 60.8917C723.193 51.465 745.457 48.336 767.143 51.9243L847.963 65.2979" stroke="#D66C14" stroke-width="1.4562"/>
<path opacity="0.7" d="M-25.4402 162.563L48.7626 127.66C68.5339 118.36 90.665 115.29 112.221 118.857L158.927 126.585C180.356 130.131 202.357 127.118 222.045 117.942L267.72 96.6513C287.289 87.53 309.146 84.4971 330.459 87.9456L378.7 95.7514C400.269 99.2414 422.389 96.0923 442.127 86.7219L485.822 65.9778C505.679 56.5511 527.943 53.422 549.628 57.0104L597.141 64.8723C618.826 68.4607 641.091 65.3317 660.947 55.9049L704.452 35.2514C724.308 25.8247 746.572 22.6956 768.258 26.284L849.078 39.6575" stroke="#D66C14" stroke-width="1.4562"/>
<path opacity="0.8" d="M-40.2436 206.948L33.9592 172.045C53.7304 162.745 75.8616 159.675 97.4177 163.242L144.123 170.97C165.553 174.516 187.554 171.504 207.241 162.327L252.917 141.036C272.485 131.915 294.343 128.882 315.655 132.331L363.897 140.137C385.465 143.627 407.585 140.477 427.323 131.107L471.019 110.363C490.875 100.936 513.139 97.8072 534.825 101.396L582.337 109.257C604.023 112.846 626.287 109.717 646.144 100.29L689.648 79.6365C709.505 70.2098 731.769 67.0808 753.455 70.6691L834.275 84.0427" stroke="#D66C14" stroke-width="5.82481"/>
<path opacity="0.7" d="M-36.2501 224.737L37.9527 189.834C57.7239 180.534 79.8551 177.464 101.411 181.031L148.117 188.759C169.546 192.305 191.547 189.293 211.235 180.116L256.91 158.825C276.479 149.704 298.336 146.671 319.649 150.12L367.89 157.926C389.459 161.415 411.579 158.266 431.317 148.896L475.012 128.152C494.869 118.725 517.133 115.596 538.819 119.184L586.331 127.046C608.016 130.635 630.281 127.506 650.137 118.079L693.642 97.4255C713.498 87.9988 735.763 84.8697 757.448 88.4581L838.268 101.832" stroke="#D66C14" stroke-width="2.91241"/>
<path opacity="0.7" d="M-56.2644 220.197L17.9384 185.294C37.7096 175.994 59.8408 172.924 81.3969 176.491L128.102 184.22C149.532 187.766 171.533 184.753 191.22 175.576L236.896 154.286C256.465 145.164 278.322 142.131 299.634 145.58L347.876 153.386C369.445 156.876 391.565 153.727 411.303 144.356L454.998 123.612C474.854 114.185 497.119 111.056 518.804 114.645L566.316 122.507C588.002 126.095 610.266 122.966 630.123 113.539L673.627 92.8857C693.484 83.459 715.748 80.33 737.434 83.9183L818.254 97.2918" stroke="#D66C14" stroke-width="2.91241"/>
<path d="M-53.1617 203.525L21.0411 168.622C40.8123 159.322 62.9435 156.252 84.4996 159.819L131.205 167.548C152.635 171.094 174.636 168.081 194.323 158.904L239.999 137.614C259.567 128.492 281.424 125.459 302.737 128.908L350.979 136.714C372.547 140.204 394.667 137.055 414.405 127.684L458.101 106.94C477.957 97.5134 500.221 94.3843 521.907 97.9727L569.419 105.835C591.105 109.423 613.369 106.294 633.226 96.8673L676.73 76.2137C696.587 66.787 718.851 63.6579 740.537 67.2463L821.357 80.6198" stroke="#D66C14" stroke-width="1.4562"/>
<path opacity="0.7" d="M314.896 251.624C316.073 256.036 302.427 265.21 287.752 269.587C273.076 273.964 259.754 276.45 258.576 272.039C257.399 267.627 268.813 257.988 283.489 253.611C298.164 249.235 313.718 247.213 314.896 251.624Z" fill="#D66C14"/>
<path opacity="0.6" d="M308.688 253.232C309.601 256.652 298.651 264.399 287.273 267.792C275.895 271.185 264.564 273.643 263.652 270.223C262.739 266.802 272.59 258.8 283.968 255.406C295.346 252.013 307.775 249.812 308.688 253.232Z" fill="#F8B375"/>
<path d="M288.054 156.745C288.796 160.206 283.56 165.912 277.767 167.332C271.975 168.753 266.137 169.275 265.395 165.814C264.652 162.353 269.285 156.219 275.077 154.798C280.869 153.378 287.311 153.284 288.054 156.745Z" fill="#F8B375"/>
<path opacity="0.6" d="M284.001 158.261C284.479 160.491 281.106 164.166 277.375 165.081C273.644 165.996 269.884 166.332 269.405 164.103C268.927 161.873 271.911 157.923 275.642 157.008C279.373 156.093 283.522 156.032 284.001 158.261Z" fill="#BA6824"/>
<path opacity="0.5" d="M304.593 254.175C305.168 256.33 296.001 262.716 287.396 265.282C278.79 267.848 269.328 270.741 268.753 268.587C268.177 266.432 276.708 260.045 285.313 257.479C293.918 254.912 304.018 252.02 304.593 254.175Z" fill="#D66C14"/>
<path opacity="0.6" d="M299.429 256.673C299.837 258.201 293.194 262.327 287.092 264.147C280.991 265.967 275.393 267.376 274.985 265.848C274.577 264.321 279.515 260.434 285.616 258.614C291.717 256.794 299.022 255.145 299.429 256.673Z" fill="#91470A"/>
<path opacity="0.6" d="M214.502 225.657C214.402 227.235 206.79 229.03 200.426 228.811C194.063 228.591 188.308 228.144 188.408 226.566C188.508 224.988 194.427 222.876 200.79 223.096C207.153 223.315 214.602 224.079 214.502 225.657Z" fill="#91470A"/>
<path d="M201.545 284.736C201.781 286.3 197.497 289.162 193.593 289.867C189.689 290.572 186.111 290.964 185.875 289.4C185.64 287.837 188.836 284.909 192.74 284.204C196.644 283.5 201.31 283.173 201.545 284.736Z" fill="#CE7422"/>
<path opacity="0.5" d="M208.772 146.589C208.445 144.951 202.892 144.164 196.489 145.44C190.087 146.717 183.835 149.986 184.162 151.625C184.489 153.263 191.368 153.143 197.771 151.867C204.173 150.59 209.099 148.227 208.772 146.589Z" fill="#D66C14"/>
<path opacity="0.4" d="M234.25 135.09C233.499 133.598 230.814 132.868 228.532 134.016C226.25 135.164 224.774 138.127 225.525 139.619C226.275 141.111 229.194 141.018 231.476 139.87C233.758 138.723 235 136.583 234.25 135.09Z" fill="#D66C14"/>
<path opacity="0.3" d="M173.12 159.678C172.887 158.024 171.489 156.344 170.084 156.541C168.678 156.739 167.497 158.908 167.729 160.562C167.962 162.217 169.59 163.228 170.996 163.03C172.401 162.833 173.352 161.332 173.12 159.678Z" fill="#D66C14"/>
<path opacity="0.3" d="M146.927 159.032C146.785 158.021 145.944 156.993 145.1 157.111C144.257 157.23 143.551 158.553 143.693 159.564C143.835 160.575 144.814 161.195 145.658 161.077C146.501 160.958 147.069 160.043 146.927 159.032Z" fill="#D66C14"/>
</g>
<g filter="url(#filter2_f_15_9727)">
<path d="M185.158 72.1997C109.145 180.548 186.21 329.663 318.561 330.325L360.996 330.537L-13.1516 342.008L185.158 72.1997Z" fill="url(#paint1_linear_15_9727)" fill-opacity="0.4"/>
</g>
<g opacity="0.2" filter="url(#filter3_f_15_9727)">
<path d="M256.771 363.322C339.335 259.879 271.632 106.286 139.575 97.4461L97.234 94.6118L471.375 106.285L256.771 363.322Z" fill="#FFEAB3"/>
</g>
</g>
</g>
<defs>
<filter id="filter0_d_15_9727" x="66.3986" y="65.9542" width="304.953" height="304.953" filterUnits="userSpaceOnUse" color-interpolation-filters="sRGB">
<feFlood flood-opacity="0" result="BackgroundImageFix"/>
<feColorMatrix in="SourceAlpha" type="matrix" values="0 0 0 0 0 0 0 0 0 0 0 0 0 0 0 0 0 0 127 0" result="hardAlpha"/>
<feOffset/>
<feGaussianBlur stdDeviation="14.562"/>
<feComposite in2="hardAlpha" operator="out"/>
<feColorMatrix type="matrix" values="0 0 0 0 0.404167 0 0 0 0 0.156468 0 0 0 0 0.0690452 0 0 0 0.8 0"/>
<feBlend mode="normal" in2="BackgroundImageFix" result="effect1_dropShadow_15_9727"/>
<feBlend mode="normal" in="SourceGraphic" in2="effect1_dropShadow_15_9727" result="shape"/>
</filter>
<filter id="filter1_f_15_9727" x="-58.7045" y="22.2899" width="978.904" height="345.752" filterUnits="userSpaceOnUse" color-interpolation-filters="sRGB">
<feFlood flood-opacity="0" result="BackgroundImageFix"/>
<feBlend mode="normal" in="SourceGraphic" in2="BackgroundImageFix" result="shape"/>
<feGaussianBlur stdDeviation="0.910127" result="effect1_foregroundBlur_15_9727"/>
</filter>
<filter id="filter2_f_15_9727" x="-27.7136" y="57.6377" width="403.272" height="298.932" filterUnits="userSpaceOnUse" color-interpolation-filters="sRGB">
<feFlood flood-opacity="0" result="BackgroundImageFix"/>
<feBlend mode="normal" in="SourceGraphic" in2="BackgroundImageFix" result="shape"/>
<feGaussianBlur stdDeviation="7.28102" result="effect1_foregroundBlur_15_9727"/>
</filter>
<filter id="filter3_f_15_9727" x="79.0314" y="76.4093" width="410.546" height="305.115" filterUnits="userSpaceOnUse" color-interpolation-filters="sRGB">
<feFlood flood-opacity="0" result="BackgroundImageFix"/>
<feBlend mode="normal" in="SourceGraphic" in2="BackgroundImageFix" result="shape"/>
<feGaussianBlur stdDeviation="9.10127" result="effect1_foregroundBlur_15_9727"/>
</filter>
<linearGradient id="paint0_linear_15_9727" x1="309.403" y1="203.385" x2="95.5227" y2="238.516" gradientUnits="userSpaceOnUse">
<stop stop-color="#F4E8D5"/>
<stop offset="1" stop-color="#FC7100"/>
</linearGradient>
<linearGradient id="paint1_linear_15_9727" x1="94.9352" y1="282.17" x2="196.85" y2="244.096" gradientUnits="userSpaceOnUse">
<stop stop-color="#511D04"/>
<stop offset="1" stop-color="#CD7121"/>
</linearGradient>
<clipPath id="clip0_15_9727">
<rect x="95.5227" y="125.478" width="218.431" height="218.431" rx="109.215" transform="rotate(-8 95.5227 125.478)" fill="white"/>
</clipPath>
</defs>
</svg>
