<svg width="393" height="852" viewBox="0 0 393 852" fill="none" xmlns="http://www.w3.org/2000/svg">
<rect width="393" height="852" fill="#0E0E0E"/>
<g filter="url(#filter0_f_156_4649)">
<path d="M158.5 424L159.286 426.418H161.829L159.771 427.913L160.557 430.332L158.5 428.837L156.443 430.332L157.229 427.913L155.171 426.418H157.714L158.5 424Z" fill="white"/>
</g>
<g filter="url(#filter1_f_156_4649)">
<path d="M349.5 547L350.286 549.418H352.829L350.771 550.913L351.557 553.332L349.5 551.837L347.443 553.332L348.229 550.913L346.171 549.418H348.714L349.5 547Z" fill="white"/>
</g>
<g filter="url(#filter2_f_156_4649)">
<path d="M112.5 722L113.286 724.418H115.829L113.771 725.913L114.557 728.332L112.5 726.837L110.443 728.332L111.229 725.913L109.171 724.418H111.714L112.5 722Z" fill="white"/>
</g>
<g filter="url(#filter3_f_156_4649)">
<path d="M68.5 778L69.9593 782.491H74.6819L70.8613 785.267L72.3206 789.759L68.5 786.983L64.6794 789.759L66.1387 785.267L62.3181 782.491H67.0407L68.5 778Z" fill="white"/>
</g>
<g filter="url(#filter4_f_156_4649)">
<path d="M28 614L28.449 615.382H29.9021L28.7265 616.236L29.1756 617.618L28 616.764L26.8244 617.618L27.2735 616.236L26.0979 615.382H27.551L28 614Z" fill="white"/>
</g>
<g filter="url(#filter5_f_156_4649)">
<path d="M378 448L378.449 449.382H379.902L378.727 450.236L379.176 451.618L378 450.764L376.824 451.618L377.273 450.236L376.098 449.382H377.551L378 448Z" fill="white"/>
</g>
<g filter="url(#filter6_f_156_4649)">
<path d="M67 490L67.449 491.382H68.9021L67.7265 492.236L68.1756 493.618L67 492.764L65.8244 493.618L66.2735 492.236L65.0979 491.382H66.551L67 490Z" fill="white"/>
</g>
<g filter="url(#filter7_f_156_4649)">
<path d="M354 662L354.449 663.382H355.902L354.727 664.236L355.176 665.618L354 664.764L352.824 665.618L353.273 664.236L352.098 663.382H353.551L354 662Z" fill="white"/>
</g>
<g filter="url(#filter8_f_156_4649)">
<path d="M53 383L53.449 384.382H54.9021L53.7265 385.236L54.1756 386.618L53 385.764L51.8244 386.618L52.2735 385.236L51.0979 384.382H52.551L53 383Z" fill="white"/>
</g>
<g filter="url(#filter9_f_156_4649)">
<path d="M256 394L256.449 395.382H257.902L256.727 396.236L257.176 397.618L256 396.764L254.824 397.618L255.273 396.236L254.098 395.382H255.551L256 394Z" fill="white"/>
</g>
<g filter="url(#filter10_f_156_4649)">
<path d="M209 783L209.449 784.382H210.902L209.727 785.236L210.176 786.618L209 785.764L207.824 786.618L208.273 785.236L207.098 784.382H208.551L209 783Z" fill="white"/>
</g>
<g filter="url(#filter11_f_156_4649)">
<path d="M90 825L90.449 826.382H91.9021L90.7265 827.236L91.1756 828.618L90 827.764L88.8244 828.618L89.2735 827.236L88.0979 826.382H89.551L90 825Z" fill="white"/>
</g>
<defs>
<filter id="filter0_f_156_4649" x="154.171" y="423" width="8.65738" height="8.33156" filterUnits="userSpaceOnUse" color-interpolation-filters="sRGB">
<feFlood flood-opacity="0" result="BackgroundImageFix"/>
<feBlend mode="normal" in="SourceGraphic" in2="BackgroundImageFix" result="shape"/>
<feGaussianBlur stdDeviation="0.5" result="effect1_foregroundBlur_156_4649"/>
</filter>
<filter id="filter1_f_156_4649" x="345.171" y="546" width="8.65741" height="8.33156" filterUnits="userSpaceOnUse" color-interpolation-filters="sRGB">
<feFlood flood-opacity="0" result="BackgroundImageFix"/>
<feBlend mode="normal" in="SourceGraphic" in2="BackgroundImageFix" result="shape"/>
<feGaussianBlur stdDeviation="0.5" result="effect1_foregroundBlur_156_4649"/>
</filter>
<filter id="filter2_f_156_4649" x="108.171" y="721" width="8.65735" height="8.33157" filterUnits="userSpaceOnUse" color-interpolation-filters="sRGB">
<feFlood flood-opacity="0" result="BackgroundImageFix"/>
<feBlend mode="normal" in="SourceGraphic" in2="BackgroundImageFix" result="shape"/>
<feGaussianBlur stdDeviation="0.5" result="effect1_foregroundBlur_156_4649"/>
</filter>
<filter id="filter3_f_156_4649" x="60.461" y="776.143" width="16.0781" height="15.4729" filterUnits="userSpaceOnUse" color-interpolation-filters="sRGB">
<feFlood flood-opacity="0" result="BackgroundImageFix"/>
<feBlend mode="normal" in="SourceGraphic" in2="BackgroundImageFix" result="shape"/>
<feGaussianBlur stdDeviation="0.928571" result="effect1_foregroundBlur_156_4649"/>
</filter>
<filter id="filter4_f_156_4649" x="25.5265" y="613.429" width="4.94706" height="4.76088" filterUnits="userSpaceOnUse" color-interpolation-filters="sRGB">
<feFlood flood-opacity="0" result="BackgroundImageFix"/>
<feBlend mode="normal" in="SourceGraphic" in2="BackgroundImageFix" result="shape"/>
<feGaussianBlur stdDeviation="0.285714" result="effect1_foregroundBlur_156_4649"/>
</filter>
<filter id="filter5_f_156_4649" x="375.526" y="447.429" width="4.94706" height="4.76089" filterUnits="userSpaceOnUse" color-interpolation-filters="sRGB">
<feFlood flood-opacity="0" result="BackgroundImageFix"/>
<feBlend mode="normal" in="SourceGraphic" in2="BackgroundImageFix" result="shape"/>
<feGaussianBlur stdDeviation="0.285714" result="effect1_foregroundBlur_156_4649"/>
</filter>
<filter id="filter6_f_156_4649" x="64.5265" y="489.429" width="4.94706" height="4.76089" filterUnits="userSpaceOnUse" color-interpolation-filters="sRGB">
<feFlood flood-opacity="0" result="BackgroundImageFix"/>
<feBlend mode="normal" in="SourceGraphic" in2="BackgroundImageFix" result="shape"/>
<feGaussianBlur stdDeviation="0.285714" result="effect1_foregroundBlur_156_4649"/>
</filter>
<filter id="filter7_f_156_4649" x="351.526" y="661.429" width="4.94706" height="4.76088" filterUnits="userSpaceOnUse" color-interpolation-filters="sRGB">
<feFlood flood-opacity="0" result="BackgroundImageFix"/>
<feBlend mode="normal" in="SourceGraphic" in2="BackgroundImageFix" result="shape"/>
<feGaussianBlur stdDeviation="0.285714" result="effect1_foregroundBlur_156_4649"/>
</filter>
<filter id="filter8_f_156_4649" x="50.5265" y="382.429" width="4.94706" height="4.76089" filterUnits="userSpaceOnUse" color-interpolation-filters="sRGB">
<feFlood flood-opacity="0" result="BackgroundImageFix"/>
<feBlend mode="normal" in="SourceGraphic" in2="BackgroundImageFix" result="shape"/>
<feGaussianBlur stdDeviation="0.285714" result="effect1_foregroundBlur_156_4649"/>
</filter>
<filter id="filter9_f_156_4649" x="253.526" y="393.429" width="4.94706" height="4.76089" filterUnits="userSpaceOnUse" color-interpolation-filters="sRGB">
<feFlood flood-opacity="0" result="BackgroundImageFix"/>
<feBlend mode="normal" in="SourceGraphic" in2="BackgroundImageFix" result="shape"/>
<feGaussianBlur stdDeviation="0.285714" result="effect1_foregroundBlur_156_4649"/>
</filter>
<filter id="filter10_f_156_4649" x="206.526" y="782.429" width="4.94706" height="4.7609" filterUnits="userSpaceOnUse" color-interpolation-filters="sRGB">
<feFlood flood-opacity="0" result="BackgroundImageFix"/>
<feBlend mode="normal" in="SourceGraphic" in2="BackgroundImageFix" result="shape"/>
<feGaussianBlur stdDeviation="0.285714" result="effect1_foregroundBlur_156_4649"/>
</filter>
<filter id="filter11_f_156_4649" x="87.5265" y="824.429" width="4.94706" height="4.7609" filterUnits="userSpaceOnUse" color-interpolation-filters="sRGB">
<feFlood flood-opacity="0" result="BackgroundImageFix"/>
<feBlend mode="normal" in="SourceGraphic" in2="BackgroundImageFix" result="shape"/>
<feGaussianBlur stdDeviation="0.285714" result="effect1_foregroundBlur_156_4649"/>
</filter>
</defs>
</svg>
